<svg xmlns="http://www.w3.org/2000/svg" xmlns:xlink="http://www.w3.org/1999/xlink" version="1.1" id="圖層_1" x="0px" y="0px"
  viewBox="0 0 220.9 48.6" enable-background="new 0 0 220.9 48.6" xml:space="preserve">
  <g>
    <path d="M603.9-125.5c-0.6-0.1-1.1-0.1-1.6-0.1c-0.5,0-1,0-1.6,0c-0.6,0-1.1,0-1.6,0c-0.5,0-1,0-1.6,0.1c-0.3-0.9-0.6-2-1.1-3.3   c-0.5-1.3-1-2.6-1.6-4c-0.6-1.4-1.1-2.8-1.7-4.2c-0.6-1.4-1.1-2.8-1.7-4.1c-1.3,0-2.5-0.1-3.8-0.1c-1.3,0-2.6,0-3.9,0   c-1.2,0-2.4,0-3.6,0c-1.2,0-2.4,0-3.6,0.1c-1.3,3.1-2.4,6-3.4,8.8c-1,2.8-1.8,5.1-2.3,6.9c-0.7-0.1-1.4-0.1-2.2-0.1   c-0.8,0-1.5,0-2.2,0.1c3.2-6.9,6.3-13.7,9.3-20.5c3-6.8,6.1-13.7,9.1-20.7h1.1c0.9,2.3,2,4.7,3.1,7.4c1.1,2.7,2.2,5.3,3.4,8   c1.1,2.7,2.3,5.4,3.4,8.1c1.1,2.7,2.2,5.2,3.2,7.5c1,2.3,1.9,4.4,2.7,6.2C602.7-127.8,603.4-126.4,603.9-125.5z M577.8-143.8   c1,0,2.1,0,3.2,0.1c1.1,0,2.2,0.1,3.2,0.1c1.1,0,2.2,0,3.3,0c1.1,0,2.2,0,3.3-0.1l-6.5-15L577.8-143.8z" />
    <path d="M606.3-146c0.9-1.8,2-3.4,3.4-4.6c1.4-1.2,3-2.1,4.8-2.7c1.8-0.6,3.7-0.9,5.5-0.9c2.2,0,4.1,0.3,5.8,0.8   c1.7,0.5,2.9,1.1,3.7,1.8c-0.3,0.6-0.5,1.2-0.7,1.9c-0.2,0.6-0.4,1.3-0.6,2h-0.5c-0.3-0.5-0.6-1-1.1-1.6c-0.5-0.5-1-1-1.7-1.5   c-0.6-0.5-1.4-0.8-2.2-1.1c-0.8-0.3-1.6-0.4-2.6-0.4c-1.8,0-3.3,0.3-4.6,1c-1.3,0.6-2.3,1.5-3.1,2.7c-0.8,1.1-1.4,2.5-1.8,4   c-0.4,1.6-0.6,3.2-0.6,5c0,4,0.9,7.1,2.6,9.2c1.7,2.1,4.3,3.1,7.6,3.1c0.8,0,1.6-0.1,2.4-0.3c0.8-0.2,1.6-0.5,2.4-0.9   c0.8-0.4,1.5-0.8,2.2-1.3c0.7-0.5,1.3-1.1,1.8-1.6l0.3,0.2c-0.2,0.9-0.3,1.9-0.4,2.9c-1.2,0.9-2.6,1.7-4.4,2.4   c-1.7,0.7-3.6,1-5.5,1c-1.7,0-3.4-0.2-5.1-0.7c-1.7-0.5-3.3-1.3-4.6-2.5c-1.4-1.2-2.5-2.7-3.3-4.5c-0.8-1.8-1.3-4.1-1.3-6.8   C605-142,605.4-144.2,606.3-146z" />
    <path d="M633.4-146c0.9-1.8,2-3.4,3.4-4.6c1.4-1.2,3-2.1,4.8-2.7c1.8-0.6,3.7-0.9,5.5-0.9c2.2,0,4.1,0.3,5.8,0.8   c1.7,0.5,2.9,1.1,3.7,1.8c-0.3,0.6-0.5,1.2-0.7,1.9c-0.2,0.6-0.4,1.3-0.6,2h-0.5c-0.3-0.5-0.6-1-1.1-1.6c-0.5-0.5-1-1-1.7-1.5   c-0.6-0.5-1.4-0.8-2.2-1.1c-0.8-0.3-1.7-0.4-2.6-0.4c-1.8,0-3.3,0.3-4.6,1c-1.3,0.6-2.3,1.5-3.1,2.7c-0.8,1.1-1.4,2.5-1.8,4   c-0.4,1.6-0.6,3.2-0.6,5c0,4,0.9,7.1,2.6,9.2c1.7,2.1,4.3,3.1,7.6,3.1c0.8,0,1.6-0.1,2.4-0.3c0.8-0.2,1.6-0.5,2.4-0.9   c0.8-0.4,1.5-0.8,2.2-1.3c0.7-0.5,1.3-1.1,1.8-1.6l0.3,0.2c-0.2,0.9-0.3,1.9-0.4,2.9c-1.2,0.9-2.6,1.7-4.4,2.4   c-1.7,0.7-3.6,1-5.5,1c-1.7,0-3.4-0.2-5.1-0.7c-1.7-0.5-3.3-1.3-4.6-2.5c-1.4-1.2-2.5-2.7-3.3-4.5c-0.8-1.8-1.3-4.1-1.3-6.8   C632.1-142,632.5-144.2,633.4-146z" />
    <path d="M661.3-139.7c0.1-1.5,0.1-2.9,0.1-4.4c0-1.4,0-2.9,0-4.5c0-1.6,0-3.2-0.1-4.9c1,0.2,1.8,0.3,2.5,0.3c0.6,0,1.4-0.1,2.4-0.3   c-0.2,2.4-0.3,4.9-0.4,7.8c-0.1,2.8-0.1,5.7-0.1,8.6c0,2,0.2,3.6,0.5,4.7c0.4,1.1,0.8,1.9,1.3,2.4c0.5,0.6,1.2,1.1,2.1,1.6   c0.8,0.4,1.8,0.6,3,0.6c1.6,0,3-0.4,4.1-1.1c1.1-0.7,1.9-1.6,2.4-2.7c0.3-0.7,0.5-1.2,0.6-1.7c0.2-0.5,0.3-1.1,0.4-1.9   c0.1-0.8,0.2-1.8,0.2-3.2c0-1.3,0-3.2,0-5.5v-5c0-0.9,0-1.7,0-2.5c0-0.8,0-1.5-0.1-2.2c0.4,0.1,0.8,0.1,1.2,0.2   c0.4,0.1,0.8,0.1,1.2,0.1s0.8,0,1.2-0.1c0.4-0.1,0.8-0.1,1.2-0.2c-0.2,3.1-0.3,6-0.4,8.9c0,2.8-0.1,5.9-0.1,9c0,1.8,0,3.5,0.1,5.2   c0,1.7,0.1,3.3,0.2,4.9c-0.8-0.1-1.6-0.1-2.3-0.1c-0.7,0-1.5,0-2.3,0.1c0-0.4,0.1-0.7,0.1-1.1c0-0.4,0-0.8,0-1.2v-2.5h-0.1   c-1,1.9-2.3,3.3-3.9,4.2c-1.6,0.9-3.4,1.3-5.2,1.3c-3.1,0-5.5-0.8-7.2-2.4c-1.7-1.6-2.6-4-2.6-7   C661.2-136.5,661.3-138.3,661.3-139.7z" />
    <path d="M694.4-139.4c-1.8-4.6-3.8-9.3-6-14.1c0.5,0.1,1,0.1,1.5,0.2c0.5,0.1,1,0.1,1.5,0.1c0.4,0,0.9,0,1.3-0.1   c0.4-0.1,0.9-0.1,1.3-0.2c1.2,3.9,2.5,7.7,4,11.5c1.4,3.8,3,7.6,4.8,11.5c0.8-1.6,1.6-3.3,2.3-5.2c0.8-1.9,1.5-3.8,2.3-5.8   c0.8-2,1.5-4,2.2-6c0.7-2,1.4-4,2.2-5.9c0.7,0.2,1.3,0.3,1.8,0.3c0.5,0,1.1-0.1,1.8-0.3c-2.1,4.8-4.2,9.4-6.2,14.1   c-2,4.6-3.9,9.3-5.6,13.9c-0.6-0.1-1.2-0.1-1.8-0.1c-0.6,0-1.3,0-1.9,0.1C698-130.1,696.2-134.8,694.4-139.4z" />
    <path d="M740.9-125.5c-0.4-0.1-0.7-0.1-1.1-0.1c-0.3,0-0.7,0-1.1,0c-0.4,0-0.7,0-1.1,0c-0.3,0-0.7,0-1.1,0.1   c-0.2-0.6-0.4-1.4-0.8-2.3c-0.3-0.9-0.7-1.8-1.1-2.8c-0.4-1-0.8-2-1.2-2.9c-0.4-1-0.8-1.9-1.1-2.8c-0.9,0-1.8,0-2.7-0.1   c-0.9,0-1.8,0-2.7,0c-0.8,0-1.7,0-2.5,0c-0.8,0-1.7,0-2.5,0.1c-0.9,2.1-1.7,4.2-2.4,6.1c-0.7,1.9-1.2,3.5-1.6,4.8   c-0.5-0.1-1-0.1-1.5-0.1c-0.5,0-1.1,0-1.5,0.1c2.2-4.8,4.4-9.5,6.5-14.2c2.1-4.7,4.2-9.5,6.3-14.4h0.8c0.7,1.6,1.4,3.3,2.1,5.1   c0.8,1.8,1.5,3.7,2.3,5.6c0.8,1.9,1.6,3.8,2.4,5.6c0.8,1.9,1.5,3.6,2.2,5.2c0.7,1.6,1.3,3,1.9,4.3   C740.1-127.1,740.5-126.2,740.9-125.5z M722.7-138.3c0.7,0,1.4,0,2.2,0c0.8,0,1.5,0,2.2,0c0.8,0,1.5,0,2.3,0c0.8,0,1.5,0,2.3-0.1   l-4.5-10.4L722.7-138.3z" />
    <path d="M745.9-157.3c0-1.6,0-3.1-0.1-4.7c0-1.5-0.1-3-0.1-4.4c-0.1-1.4-0.1-2.6-0.2-3.6c1.1,0.2,2,0.3,2.7,0.3   c0.7,0,1.6-0.1,2.7-0.3c-0.1,1-0.1,2.2-0.2,3.6c-0.1,1.4-0.1,2.9-0.1,4.4c0,1.5-0.1,3.1-0.1,4.7c0,1.6,0,3,0,4.4v10.7   c0,1.3,0,2.8,0,4.4c0,1.6,0,3.1,0.1,4.7c0,1.5,0.1,3,0.1,4.4c0.1,1.4,0.1,2.5,0.2,3.4c-0.9-0.1-1.8-0.1-2.7-0.1   c-0.9,0-1.7,0-2.7,0.1c0.1-0.9,0.1-2,0.2-3.4c0.1-1.4,0.1-2.8,0.1-4.4c0-1.5,0.1-3.1,0.1-4.7c0-1.6,0-3,0-4.4V-153   C745.9-154.3,745.9-155.8,745.9-157.3z" />
    <path d="M759.9-157.3c0-1.6,0-3.1-0.1-4.7c0-1.5-0.1-3-0.1-4.4c-0.1-1.4-0.1-2.6-0.2-3.6c1.1,0.2,2,0.3,2.7,0.3   c0.7,0,1.6-0.1,2.7-0.3c-0.1,1-0.1,2.2-0.2,3.6c-0.1,1.4-0.1,2.9-0.1,4.4c0,1.5-0.1,3.1-0.1,4.7c0,1.6,0,3,0,4.4v10.7   c0,1.3,0,2.8,0,4.4c0,1.6,0,3.1,0.1,4.7c0,1.5,0.1,3,0.1,4.4c0.1,1.4,0.1,2.5,0.2,3.4c-0.9-0.1-1.8-0.1-2.7-0.1   c-0.9,0-1.7,0-2.7,0.1c0.1-0.9,0.1-2,0.2-3.4c0.1-1.4,0.1-2.8,0.1-4.4c0-1.5,0.1-3.1,0.1-4.7c0-1.6,0-3,0-4.4V-153   C760-154.3,759.9-155.8,759.9-157.3z" />
    <path d="M779.4-129.6c-0.7-1.7-1.4-3.5-2.2-5.3c-0.8-1.9-1.6-3.8-2.4-5.7c-0.8-1.9-1.6-3.8-2.3-5.5c-0.7-1.7-1.4-3.2-1.9-4.5   c-0.6-1.3-1-2.3-1.2-2.9c0.5,0.1,1,0.1,1.4,0.2c0.4,0.1,0.9,0.1,1.3,0.1c0.4,0,0.9,0,1.3-0.1c0.4-0.1,0.9-0.1,1.4-0.2   c1.2,3.8,2.6,7.5,4.1,11.2c1.5,3.7,3.1,7.5,4.7,11.4c1.7-3.5,3.2-7.1,4.7-11.1c1.5-3.9,2.9-7.8,4-11.6c0.8,0.2,1.4,0.3,1.9,0.3   c0.5,0,1.2-0.1,1.9-0.3c-0.3,0.6-0.7,1.5-1.3,2.8c-0.6,1.3-1.3,2.9-2.2,4.7c-0.8,1.8-1.8,3.9-2.8,6.1c-1,2.2-2,4.5-3.1,6.8   c-1,2.3-2.1,4.7-3.1,7c-1,2.3-2,4.5-2.8,6.5c-0.9,2.1-1.6,3.9-2.3,5.6c-0.6,1.7-1.1,3-1.4,4c-0.8-0.2-1.5-0.3-2-0.3   c-0.6,0-1.2,0.1-2,0.3c3.1-5.1,5.7-10.3,7.9-15.4C780.6-126.5,780.1-127.9,779.4-129.6z" />
    <path d="M814.7-158.4c-0.1-2.5-0.2-5-0.3-7.6c0.5,0.1,1,0.1,1.5,0.2c0.5,0.1,0.9,0.1,1.4,0.1s0.9,0,1.4-0.1c0.5-0.1,1-0.1,1.5-0.2   c-0.1,2.6-0.2,5.1-0.3,7.6c-0.1,2.5-0.1,5-0.1,7.6v10.1c0,2.6,0,5.1,0.1,7.7c0.1,2.5,0.2,5,0.3,7.4c-0.9-0.1-1.9-0.1-2.9-0.1   c-1,0-2,0-2.9,0.1c0.1-2.4,0.2-4.9,0.3-7.4c0.1-2.5,0.1-5.1,0.1-7.7v-10.1C814.9-153.3,814.8-155.9,814.7-158.4z" />
    <path d="M845.1-148.7c-1.1-1.5-2.7-2.3-4.7-2.3c-2.8,0-4.8,0.8-6,2.5c-1.3,1.7-1.9,4.1-1.9,7.1v5c0,1.8,0,3.6,0.1,5.6   c0.1,1.9,0.2,3.7,0.4,5.3c-0.9-0.1-1.8-0.1-2.7-0.1c-0.9,0-1.7,0-2.7,0.1c0.2-1.6,0.3-3.3,0.4-5.3c0.1-1.9,0.1-3.8,0.1-5.6v-6.1   c0-1.8,0-3.6-0.1-5.6c-0.1-1.9-0.2-3.8-0.4-5.5c1.1,0.2,2,0.3,2.7,0.3c0.3,0,0.7,0,1-0.1c0.4-0.1,0.8-0.1,1.3-0.2   c-0.1,1.6-0.2,3.1-0.2,4.7h0.1c1.1-1.7,2.4-3,4-3.9c1.5-0.9,3.4-1.4,5.5-1.4c1.1,0,2.2,0.2,3.3,0.5c1.1,0.3,2.1,0.9,3,1.6   c0.9,0.8,1.6,1.8,2.2,3.1c0.6,1.3,0.9,3,0.9,5c0,1.7,0,3.4-0.1,5.2c-0.1,1.8-0.1,3.7-0.1,5.7v3.8c0,0.6,0,1.2,0,1.9   c0,0.6,0,1.2,0.1,1.7c-0.8-0.1-1.6-0.1-2.5-0.1c-0.8,0-1.7,0-2.4,0.1c0.1-2,0.2-4.1,0.3-6.3c0.1-2.2,0.1-4.4,0.1-6.7v-3.6   C846.8-145,846.3-147.2,845.1-148.7z" />
    <path d="M857.3-146c0.9-1.8,2-3.4,3.4-4.6c1.4-1.2,3-2.1,4.8-2.7c1.8-0.6,3.7-0.9,5.5-0.9c2.2,0,4.1,0.3,5.8,0.8   c1.7,0.5,2.9,1.1,3.7,1.8c-0.3,0.6-0.5,1.2-0.7,1.9c-0.2,0.6-0.4,1.3-0.6,2h-0.5c-0.3-0.5-0.6-1-1.1-1.6c-0.5-0.5-1-1-1.7-1.5   c-0.6-0.5-1.4-0.8-2.1-1.1c-0.8-0.3-1.7-0.4-2.6-0.4c-1.8,0-3.3,0.3-4.6,1c-1.3,0.6-2.3,1.5-3.1,2.7c-0.8,1.1-1.4,2.5-1.8,4   c-0.4,1.6-0.6,3.2-0.6,5c0,4,0.9,7.1,2.6,9.2c1.7,2.1,4.3,3.1,7.6,3.1c0.8,0,1.6-0.1,2.4-0.3c0.8-0.2,1.6-0.5,2.4-0.9   c0.8-0.4,1.5-0.8,2.2-1.3c0.7-0.5,1.3-1.1,1.8-1.6l0.3,0.2c-0.2,0.9-0.3,1.9-0.4,2.9c-1.2,0.9-2.6,1.7-4.4,2.4   c-1.8,0.7-3.6,1-5.5,1c-1.7,0-3.4-0.2-5.1-0.7c-1.7-0.5-3.3-1.3-4.6-2.5c-1.4-1.2-2.5-2.7-3.3-4.5c-0.8-1.8-1.3-4.1-1.3-6.8   C856-142,856.5-144.2,857.3-146z" />
  </g>
  <g>
    <path fill-rule="evenodd" clip-rule="evenodd" fill="#1C87C9" d="M413-66.1c1.2,0,1.8,0.7,1.8,2c0,0.9-0.7,1.5-2.2,1.7   c-3,0.2-6.8,0.5-11.6,0.7l-3.5,0.1c-5.1,0.2-8.7,0.3-10.8,0.3c-1.4,0-2.1-0.7-2.1-2c0-1.1,0.6-1.7,1.8-1.7c4.7,0,9-0.1,12.9-0.3   C404.1-65.4,408.7-65.7,413-66.1L413-66.1z M445.2-38.7c0,0.6-0.4,1-0.9,0.7l-1.4-0.7c-0.5-0.3-0.9-1-0.9-1.6v-8.4   c0-0.8-0.4-1.2-1.1-1.2h-4.7v3h4.2c0.5,0,0.7,0.4,0.4,0.9l-0.6,1c-0.3,0.5-0.9,0.9-1.4,0.9h-2.6v3.4h3.8c0.5,0,0.8,0.4,0.6,0.9   l-0.4,1.2c-0.2,0.5-0.7,0.9-1.3,0.9h-0.1h-2.7v3.4h7.6c0.5,0,0.7,0.4,0.5,0.9l-0.6,1.5c-0.2,0.5-0.8,0.9-1.2,0.9h-6.2v2.1   c0,0.5-0.4,0.9-0.9,0.7l-2.2-0.7c-0.5-0.2-0.9-0.7-0.9-1.3v-0.9h-8.7c-0.5,0-0.7-0.4-0.5-0.9l0.6-1.5c0.2-0.5,0.8-0.9,1.2-0.9h7.4   v-3.4h-6.8c-1.9,0-2.8-0.9-2.8-2.7v-10.1c0-1.8,0.9-2.7,2.8-2.7h6.8v-2.9h-8.7c-0.1,0-0.2,0-0.3-0.1l0,0c-0.3-0.1-0.4-0.4-0.2-0.8   l0.6-1.5c0.2-0.5,0.8-0.9,1.2-0.9h7.4v-1.6c0-0.5,0.4-0.9,0.9-0.7l2.2,0.7c0.5,0.2,0.9,0.7,0.9,1.3v0.4h7.6c0.5,0,0.7,0.4,0.5,0.9   l-0.6,1.5c-0.2,0.5-0.8,0.9-1.2,0.9h-6.2v2.9h6.2c1.9,0,2.8,0.9,2.8,2.7L445.2-38.7z M485.8-65.4l21,0c2,0,3,0.9,3,2.6   c0,0.9-0.6,1.9-1.7,2.9c-1.2,1.1-3.4,2.5-6.3,4c0.2,0.1,0.3,0.2,0.4,0.2c0.4,0.3,0.6,0.6,0.7,0.9h7.6c2.1,0,3.2,1,3.2,2.9v23   c0,0.6-0.4,0.9-0.9,0.7l-1.6-0.6c-0.4-0.2-0.8-0.6-0.9-1.1c0.1-1.8,0-18.1,0-18.5v-1.7c0-1-0.5-1.6-1.5-1.6h-19.7   c-1,0-1.5,0.5-1.5,1.6l0,3h9.1v-3.3c0-0.5,0.4-0.9,0.9-0.7l2,0.7c0.5,0.2,0.9,0.7,0.9,1.3v2h2.8h0h5.5c0.5,0,0.8,0.4,0.5,0.9   l-0.5,1c-0.2,0.5-0.8,0.9-1.4,0.9l-7,0v4.1l8.3,0c0.5,0,0.8,0.4,0.5,0.9l-0.5,1c-0.2,0.5-0.8,0.9-1.4,0.9l-7,0v6   c0,0.5-0.4,0.9-0.9,0.7l-2-0.7c-0.5-0.2-0.9-0.7-0.9-1.3v-4.7h-9.1v7.2c0,0.6-0.4,0.9-0.9,0.7l-1.6-0.6c-0.5-0.2-0.9-0.8-0.9-1.3   v-20.7c0-1.9,1.1-2.9,3.4-2.9h8.2c-1.7-0.6-3.4-1.3-5.1-1.9c-0.7-0.5-1.1-1-1.1-1.5c0-1.1,0.6-1.7,1.8-1.7c0.4,0,0.8,0.2,1.3,0.4   c2,0.7,3.9,1.4,5.7,2.2c3.1-1.7,5.2-3,6.5-4c0.3-0.3,0.5-0.6,0.5-0.8c0-0.4-0.1-0.5-0.4-0.5H485c-0.5,0-0.7-0.4-0.6-0.8l0.3-1.3   C484.9-65,485.3-65.4,485.8-65.4L485.8-65.4z M473.3-44c-0.5,0-1.1,0.4-1.2,1l-0.3,1.5c-0.1,0.6,0.2,1,0.8,1h1.2v0h2.5   c0.5,0,0.7,0.3,0.7,0.8v8.4c0,2-0.4,3.4-1.4,4.1c-0.7,0.7-2.1,1.4-4,2.2c-0.9,0.3-1.4,0.8-1.4,1.7c0.1,1.1,0.8,1.8,2,1.9   c0.4,0,1-0.2,1.9-0.7c1.7-0.8,3.2-1.9,4.6-3.3c0.2-0.3,0.4-0.4,0.6-0.4l0.7,0.4c1.5,1.2,3.4,2,5.5,2.5c2.1,0.6,4.5,0.9,7.2,0.9H513   l1.8,0c0.5,0,1.1-0.4,1.3-0.9l0.7-1.8c0.2-0.5,0-0.9-0.5-0.9h-4.4c0,0-0.1,0-0.1,0c-6.7,0-13.9-0.1-20.5-0.1   c-3.4,0-6.1-0.6-8.1-1.8c-1.7-1-2.5-2.3-2.5-3.8v-10.1c0-1.6-0.8-2.4-2.2-2.5c-0.1,0-0.1,0-0.2,0H473.3L473.3-44z M447.8-57.5   c-0.5,0-1.2,0.4-1.4,1l-0.6,1.5c-0.2,0.5,0,1,0.6,1h6.6c-0.2,2.9-0.5,5.8-0.9,8.6c-1.2,7.8-3.5,14.7-6.8,20.8   c-0.3,0.6-0.5,1-0.5,1.1c0,1.4,0.7,2,2,2c0.6,0,1.1-0.3,1.6-0.9c3.5-6.4,5.9-13.7,7.2-21.9c0.4-3.1,0.7-6.3,0.9-9.7h0.1   c0.1,0,0.1,0,0.2,0h3.3c1.1,0,1.7,0.6,1.7,1.8c0,6.4-0.1,11.9-0.3,16.5c-0.2,4.1-0.5,6.9-1.1,8.4c-0.5,1.5-1.4,2.2-2.7,2.2   c-0.8,0-2.1-0.4-3.8-1.1c-1.3,0-1.9,0.7-1.9,2c0,0.7,0.4,1.2,1.3,1.7c1.7,0.7,3.3,1,4.7,1c2.1,0,3.7-0.8,4.8-2.5   c1-1.6,1.7-5,2-10.1c0.3-5.8,0.5-12.2,0.5-19.4c0-2.7-1.1-4-3.3-4h-5.3c0.1-2.4,0.2-4.8,0.2-7.4h0V-65c0-0.8-0.6-1.8-1.3-2.1   l-0.9-0.4c-0.7-0.3-1.3,0.1-1.3,1v1.6c0,2.5-0.1,5-0.2,7.4L447.8-57.5L447.8-57.5z M386.9-54.3c-0.6,0-1.2,0.5-1.5,1l-0.8,1.8   c-0.3,0.6,0,1,0.6,1h12.1v5.9c0,0.5,0.4,1.1,0.9,1.3l1.9,0.6c0.5,0.2,0.9-0.2,0.9-0.7v-7.1h10.6c0.6,0,1.2-0.5,1.5-1l0.8-1.8   c0.3-0.6,0-1-0.6-1H401v-5.1c0-0.5-0.4-1.1-0.9-1.3l-1.9-0.6c-0.5-0.2-0.9,0.2-0.9,0.7v6.3H386.9L386.9-54.3z M487.7-44.1v4.1h9.1   v-4.1H487.7L487.7-44.1z M432.2-40.5v-3.4h-6.3v2.2c0,0.8,0.4,1.2,1.1,1.2H432.2L432.2-40.5z M432.2-46.9v-3H427   c-0.7,0-1.1,0.4-1.1,1.2v1.9H432.2L432.2-46.9z M413.7-23.1c0,0.3-0.3,0.5-0.6,0.4l-2.4-0.9c-0.3-0.1-0.6-0.5-0.6-0.8v-12   c0-1.2-0.6-1.8-1.8-1.8h-17.9c-1.2,0-1.8,0.6-1.8,1.8v8.6c0,1.2,0.6,1.8,1.8,1.8l17.7,0c0.5,0,0.7,0.4,0.5,0.9l-0.7,1.8   c-0.2,0.5-0.8,0.9-1.2,0.9l-18.1,0c-2.2,0-3.3-1.1-3.3-3.3v-12.5c0-2.2,1.1-3.3,3.3-3.3h21.8c2.2,0,3.3,1.1,3.3,3.3v10.2V-23.1z    M376.6-66.2c0.3,0,0.7,0.2,1.1,0.7c1.7,1.3,3.4,2.8,5,4.4c0.3,0.5,0.4,0.9,0.4,1.3c0,1.2-0.7,1.8-2,1.8c-0.3,0-0.7-0.1-1.1-0.4   c-1.6-1.6-3.3-3.1-5.1-4.6c-0.4-0.5-0.6-0.9-0.6-1.1C374.4-65.6,375.1-66.2,376.6-66.2L376.6-66.2z M373-53.2c0.3,0,0.7,0.2,1,0.7   c1.9,1.4,3.7,3.1,5.4,4.9c0.3,0.5,0.4,0.9,0.4,1.3c0,1.2-0.7,1.8-2,1.8c-0.3,0-0.7-0.2-1.1-0.4c-1.7-1.8-3.4-3.5-5.3-5.2   c-0.4-0.5-0.5-0.8-0.5-1C370.9-52.6,371.6-53.2,373-53.2L373-53.2z M378.8-39.9c1.2,0,1.8,0.7,1.8,2c-0.4,2.6-0.9,5.2-1.8,7.7   c-0.8,2.5-1.9,5-3.3,7.4c-0.4,0.8-1,1.2-1.9,1.2c-1.3,0-1.9-0.6-1.9-1.8c0-0.2,0.1-0.5,0.2-0.9c1.7-3,2.7-5.2,3.2-6.6   c0.8-2.2,1.5-4.8,2-7.8C377.5-39.5,378-39.9,378.8-39.9L378.8-39.9z M442.3-66.4c-2.9,0.5-5.9,1-9.3,1.2c-2.7,0.2-5.6,0.3-8.7,0.3   c-1.1,0-1.7,0.5-1.7,1.6c0,1.3,0.7,1.9,2,1.9c1.3,0,3.8-0.2,7.9-0.5l3.4-0.2c2.3-0.2,4.3-0.5,5.9-0.7c1.4-0.2,2.1-0.7,2.1-1.6   C444-65.8,443.4-66.4,442.3-66.4L442.3-66.4z M436-26.7l-3.5,0.4c-3.1,0.3-6.4,0.5-9.9,0.6c-1.2,0-1.8,0.6-1.8,1.8   c0,1.4,0.6,2.1,1.8,2.1c6.6-0.6,13.6-1.4,20.9-2.7c1.1-0.1,1.7-0.7,1.7-1.8c0-1.1-0.5-1.6-1.6-1.6C441.2-27.4,438.6-27,436-26.7   L436-26.7z M474.8-65.9c0.4,0,0.8,0.1,1.3,0.4c1,0.5,1.9,1.1,2.7,1.6c1.2,0.7,2.3,1.6,3.4,2.5c0.4,0.5,0.6,0.9,0.6,1.1   c0,1.2-0.6,1.7-1.7,1.7c-0.6,0-1.2-0.2-1.6-0.6c-1.3-0.9-2.3-1.7-3.2-2.2c-0.8-0.5-1.6-0.9-2.5-1.4c-0.5-0.4-0.7-0.9-0.7-1.3   C473-65.3,473.6-65.9,474.8-65.9L474.8-65.9z M473.2-55.9c0.4,0,0.8,0.1,1.3,0.4c1,0.5,1.9,1.1,2.7,1.6c1.3,0.7,2.5,1.6,3.6,2.5   c0.4,0.5,0.6,0.9,0.6,1.1c0,1.2-0.6,1.8-1.7,1.8c-0.6,0-1.2-0.2-1.6-0.6c-1.3-0.9-2.4-1.7-3.4-2.2c-0.8-0.5-1.6-0.9-2.6-1.4   c-0.4-0.4-0.7-0.9-0.7-1.3C471.4-55.3,472-55.9,473.2-55.9z" />
    <path fill="#1C87C9" d="M356.3-68.8L330.2-66c-1,0.1-1.7,0.9-1.7,1.9v0.4v33.5v0.4c0,0.7,0.4,1.4,1.1,1.7l17.8,7.9   c0.2,0.1,0.5,0.2,0.8,0.2c0.4,0,0.7-0.1,1-0.3c0.5-0.3,0.9-0.9,0.9-1.6v-8.5l6.2-0.7c1.5-0.2,2.7-1.5,2.7-3v-32.1   C359.1-67.8,357.8-68.9,356.3-68.8z M355.3-35.9c0,0.6-0.5,1.1-1.1,1.2l-4,0.4v-21.6c0-0.7-0.4-1.4-1.1-1.7L337-62.9l17-1.8   c0.7,0,1.3,0.6,1.3,1.3V-35.9z" />
  </g>
  <path fill="#62B54F" d="M783.3-2.1l-26.1,2.7c-1,0.1-1.7,0.9-1.7,1.9v0.4v33.5v0.4c0,0.7,0.4,1.4,1.1,1.7l17.8,7.9  c0.2,0.1,0.5,0.2,0.8,0.2c0.4,0,0.7-0.1,1-0.3c0.5-0.3,0.9-0.9,0.9-1.6v-8.5l6.2-0.7c1.5-0.2,2.7-1.5,2.7-3V0.3  C786-1.2,784.8-2.3,783.3-2.1z M782.3,30.7c0,0.6-0.5,1.1-1.1,1.2l-4,0.4V10.8c0-0.7-0.4-1.4-1.1-1.7L764,3.7l17-1.8  c0.7,0,1.3,0.6,1.3,1.3V30.7z" />
  <g>
    <g>
      <path fill="#62B54F" d="M829.3,3.1c-0.1-0.1-0.2-0.2-0.4-0.3c-0.2-0.1-0.5-0.1-0.8-0.2c-0.3-0.1-0.7-0.1-1.2-0.1    c-0.5,0-0.9,0-1.3,0.1c-0.3,0.1-0.6,0.1-0.8,0.2c-0.2,0.1-0.3,0.2-0.4,0.3c-0.1,0.1-0.1,0.3-0.1,0.4v38.4c0,0.2,0,0.3,0.1,0.4    c0.1,0.1,0.2,0.2,0.4,0.3c0.2,0.1,0.5,0.1,0.8,0.2c0.3,0.1,0.7,0.1,1.2,0.1c0.5,0,0.9,0,1.3-0.1c0.3-0.1,0.6-0.1,0.8-0.2    c0.2-0.1,0.3-0.2,0.4-0.3c0.1-0.1,0.1-0.3,0.1-0.4V3.5C829.4,3.4,829.4,3.2,829.3,3.1z" />
      <path fill-rule="evenodd" clip-rule="evenodd" fill="#62B54F" d="M821.8,20.6c0,0-14.8,0-16.9,0v-17c0-0.2,0-0.3-0.1-0.4    c-0.1-0.1-0.2-0.2-0.4-0.3c-0.2-0.1-0.5-0.1-0.8-0.2c-0.3-0.1-0.7-0.1-1.2-0.1c-0.5,0-0.9,0-1.3,0.1c-0.3,0.1-0.6,0.1-0.8,0.2    c-0.2,0.1-0.3,0.2-0.4,0.3c-0.1,0.1-0.1,0.3-0.1,0.4v38.4c0,0.2,0,0.3,0.1,0.4c0.1,0.1,0.2,0.2,0.4,0.3c0.2,0.1,0.5,0.1,0.8,0.2    c0.3,0.1,0.7,0.1,1.2,0.1c0.5,0,0.9,0,1.3-0.1c0.3-0.1,0.6-0.1,0.8-0.2c0.2-0.1,0.3-0.2,0.4-0.3c0.1-0.1,0.1-0.3,0.1-0.4v-17    l15.2,0c0.6,0,1.3-0.5,1.5-1.1l0.9-2.2C822.7,21,822.4,20.6,821.8,20.6z" />
    </g>
    <path fill="#62B54F" d="M1015.2,22.7l11.1-19.2c0.1-0.2,0.1-0.3,0.1-0.4c0-0.1-0.1-0.2-0.3-0.3c-0.2-0.1-0.4-0.1-0.7-0.2   c-0.3-0.1-0.7-0.1-1.2-0.1c-0.5,0-0.9,0-1.3,0.1c-0.4,0.1-0.7,0.1-0.9,0.2c-0.2,0.1-0.4,0.2-0.6,0.3c-0.2,0.1-0.3,0.3-0.4,0.4   l-8.4,14.6l-8.4-14.6c-0.1-0.2-0.2-0.3-0.4-0.4c-0.2-0.1-0.4-0.2-0.6-0.3c-0.2-0.1-0.5-0.1-0.9-0.2c-0.4-0.1-0.8-0.1-1.3-0.1   c-0.5,0-0.9,0-1.2,0.1c-0.3,0.1-0.5,0.1-0.7,0.2c-0.2,0.1-0.3,0.2-0.3,0.3c0,0.1,0,0.3,0.1,0.4l11.1,19.2l-11.1,19.2   c-0.1,0.2-0.1,0.3-0.1,0.4c0,0.1,0.1,0.2,0.3,0.3c0.2,0.1,0.4,0.1,0.7,0.2c0.3,0.1,0.7,0.1,1.2,0.1c0.5,0,0.9,0,1.3-0.1   c0.4-0.1,0.7-0.1,0.9-0.2c0.2-0.1,0.4-0.2,0.6-0.3c0.2-0.1,0.3-0.3,0.4-0.4l8.4-14.6l8.4,14.6c0.1,0.2,0.2,0.3,0.4,0.4   c0.2,0.1,0.4,0.2,0.6,0.3c0.2,0.1,0.5,0.1,0.9,0.2c0.4,0.1,0.8,0.1,1.3,0.1c0.5,0,0.9,0,1.2-0.1c0.3-0.1,0.5-0.1,0.7-0.2   c0.2-0.1,0.3-0.2,0.3-0.3c0-0.1,0-0.3-0.1-0.4L1015.2,22.7z" />
    <path fill="#62B54F" d="M1034.1,11.6c-0.2-0.1-0.4-0.1-0.7-0.2c-0.3,0-0.6-0.1-1-0.1c-0.5,0-0.8,0-1.1,0.1c-0.3,0-0.5,0.1-0.7,0.2   c-0.3,0.1-0.5,0.3-0.6,0.4c-0.2,0.2-0.2,0.4-0.2,0.7v28.7c0,0.3,0.1,0.5,0.2,0.7c0.1,0.2,0.4,0.3,0.6,0.4c0.2,0.1,0.4,0.1,0.7,0.2   c0.3,0,0.6,0.1,1,0.1c0.5,0,0.8,0,1.1-0.1c0.3,0,0.5-0.1,0.7-0.2c0.3-0.1,0.5-0.3,0.6-0.4c0.2-0.2,0.2-0.4,0.2-0.7V12.8   c0-0.3-0.1-0.5-0.2-0.7C1034.5,11.9,1034.3,11.7,1034.1,11.6z" />
    <path fill="#62B54F" d="M855.6,11.6c-0.2-0.1-0.4-0.1-0.7-0.2c-0.3,0-0.6-0.1-1-0.1c-0.5,0-0.8,0-1.1,0.1c-0.3,0-0.5,0.1-0.7,0.2   c-0.3,0.1-0.5,0.3-0.6,0.4c-0.2,0.2-0.2,0.4-0.2,0.7v18.1c0,1.2-0.2,2.3-0.5,3.3c-0.3,0.9-0.7,1.6-1.3,2.2c-0.6,0.6-1.2,1-2,1.3   c-0.8,0.3-1.7,0.5-2.8,0.5c-1,0-2-0.2-2.8-0.5c-0.8-0.3-1.5-0.8-2-1.4c-0.6-0.6-1-1.4-1.3-2.3c-0.3-0.9-0.5-2.1-0.5-3.4V12.8   c0-0.3-0.1-0.5-0.2-0.7c-0.1-0.2-0.4-0.4-0.6-0.5c-0.2-0.1-0.4-0.1-0.8-0.2c-0.3,0-0.6-0.1-1-0.1c-0.5,0-0.8,0-1.1,0.1   c-0.3,0-0.5,0.1-0.7,0.2c-0.3,0.1-0.5,0.3-0.6,0.4c-0.2,0.2-0.2,0.4-0.2,0.7v18.3c0,1.9,0.3,3.6,0.8,5c0.5,1.5,1.3,2.7,2.4,3.7   c1,1,2.3,1.7,3.7,2.2c1.4,0.5,3,0.7,4.7,0.7c1.9,0,3.5-0.3,5-0.8c1.5-0.5,2.8-1.3,3.8-2.4c1-1,1.9-2.3,2.4-3.8   c0.5-1.5,0.8-3.2,0.8-5v-18c0-0.3-0.1-0.5-0.2-0.7C856.1,11.9,855.8,11.7,855.6,11.6z" />
    <path fill="#62B54F" d="M879.8,13.8c-1-1-2.3-1.7-3.7-2.2c-1.4-0.5-3-0.7-4.7-0.7c-1.9,0-3.5,0.3-5,0.8c-1.5,0.5-2.8,1.3-3.8,2.4   c-1,1-1.9,2.3-2.4,3.8c-0.5,1.5-0.8,3.2-0.8,5v8.3c0,1.9,0.3,3.6,0.8,5c0.5,1.5,1.3,2.7,2.4,3.7c1,1,2.3,1.7,3.7,2.2   c1.4,0.5,3,0.7,4.7,0.7c1.9,0,3.5-0.3,5-0.8c1.5-0.5,2.8-1.3,3.8-2.4c1-1,1.9-2.3,2.4-3.8c0.5-1.5,0.8-3.2,0.8-5v-8.3   c0-1.9-0.3-3.6-0.8-5C881.6,16,880.8,14.8,879.8,13.8z M871.2,38.1c-1,0-2-0.2-2.8-0.5c-0.8-0.3-1.5-0.8-2-1.4   c-0.6-0.6-1-1.4-1.3-2.3c-0.3-0.9-0.5-2.1-0.5-3.4v-7.8c0-1.2,0.2-2.3,0.5-3.3c0.3-0.9,0.7-1.6,1.3-2.2c0.6-0.6,1.2-1,2-1.3   c0.8-0.3,1.7-0.5,2.8-0.5c1,0,2,0.2,2.8,0.5c0.8,0.3,1.5,0.8,2,1.4c0.6,0.6,1,1.4,1.3,2.3c0.3,0.9,0.5,2.1,0.5,3.4v7.8   c0,1.2-0.2,2.3-0.5,3.3c-0.3,0.9-0.7,1.6-1.3,2.2c-0.6,0.6-1.2,1-2,1.3C873.2,38,872.3,38.1,871.2,38.1z" />
    <path fill="#62B54F" d="M940.8,13.8c-1-1-2.3-1.7-3.7-2.2c-1.4-0.5-3-0.7-4.7-0.7c-1.9,0-3.5,0.3-5,0.8c-1.5,0.5-2.8,1.3-3.8,2.4   c-1,1-1.9,2.3-2.4,3.8c-0.6,1.5-0.8,3.2-0.8,5v8.3c0,1.9,0.3,3.6,0.8,5c0.5,1.5,1.3,2.7,2.4,3.7c1,1,2.3,1.7,3.7,2.2   c1.4,0.5,3,0.7,4.7,0.7c1.9,0,3.5-0.3,5-0.8c1.5-0.5,2.8-1.3,3.8-2.4c1-1,1.9-2.3,2.4-3.8c0.6-1.5,0.8-3.2,0.8-5v-8.3   c0-1.9-0.3-3.6-0.8-5C942.6,16,941.8,14.8,940.8,13.8z M932.2,38.1c-1,0-2-0.2-2.8-0.5c-0.8-0.3-1.5-0.8-2-1.4   c-0.6-0.6-1-1.4-1.3-2.3c-0.3-0.9-0.5-2.1-0.5-3.4v-7.8c0-1.2,0.2-2.3,0.5-3.3c0.3-0.9,0.7-1.6,1.3-2.2c0.6-0.6,1.2-1,2-1.3   c0.8-0.3,1.7-0.5,2.8-0.5c1,0,2,0.2,2.8,0.5c0.8,0.3,1.5,0.8,2,1.4c0.6,0.6,1,1.4,1.3,2.3c0.3,0.9,0.5,2.1,0.5,3.4v7.8   c0,1.2-0.2,2.3-0.5,3.3c-0.3,0.9-0.7,1.6-1.3,2.2c-0.6,0.6-1.2,1-2,1.3C934.2,38,933.3,38.1,932.2,38.1z" />
    <path fill="#62B54F" d="M1060,11.6c-0.2-0.1-0.4-0.1-0.7-0.2c-0.3,0-0.6-0.1-1-0.1c-0.5,0-0.8,0-1.1,0.1c-0.3,0-0.5,0.1-0.7,0.2   c-0.3,0.1-0.5,0.3-0.6,0.4c-0.2,0.2-0.2,0.4-0.2,0.7v19.5l-11.7-20.2l-0.1-0.1c-0.1-0.2-0.4-0.3-0.6-0.4c-0.2-0.1-0.4-0.1-0.7-0.2   c-0.3,0-0.6-0.1-1-0.1c-0.5,0-0.8,0-1.1,0.1c-0.3,0-0.5,0.1-0.7,0.2c-0.3,0.1-0.5,0.3-0.6,0.4c-0.2,0.2-0.2,0.4-0.2,0.7v28.7   c0,0.3,0.1,0.5,0.2,0.7c0.2,0.2,0.4,0.3,0.6,0.4c0.2,0.1,0.4,0.1,0.7,0.2c0.3,0,0.6,0.1,1,0.1c0.5,0,0.8,0,1.1-0.1   c0.3,0,0.5-0.1,0.7-0.2c0.3-0.1,0.5-0.3,0.6-0.4c0.2-0.2,0.2-0.4,0.2-0.7V21.9l11.7,20.2l0.1,0.1c0.2,0.2,0.4,0.3,0.6,0.4   c0.2,0.1,0.4,0.1,0.7,0.2c0.3,0,0.6,0.1,1,0.1c0.5,0,0.8,0,1.1-0.1c0.3,0,0.5-0.1,0.7-0.2c0.3-0.1,0.5-0.3,0.6-0.4   c0.2-0.2,0.2-0.4,0.2-0.7V12.8c0-0.3-0.1-0.5-0.2-0.7C1060.5,11.9,1060.3,11.7,1060,11.6z" />
    <path fill="#62B54F" d="M968.7,11.6c-0.2-0.1-0.4-0.1-0.7-0.2c-0.3,0-0.6-0.1-1-0.1c-0.5,0-0.8,0-1.1,0.1c-0.3,0-0.5,0.1-0.7,0.2   c-0.3,0.1-0.5,0.3-0.6,0.4c-0.2,0.2-0.2,0.4-0.2,0.7v19.5l-11.7-20.2l-0.1-0.1c-0.1-0.2-0.4-0.3-0.6-0.4c-0.2-0.1-0.4-0.1-0.7-0.2   c-0.3,0-0.6-0.1-1-0.1c-0.5,0-0.8,0-1.1,0.1c-0.3,0-0.5,0.1-0.7,0.2c-0.3,0.1-0.5,0.3-0.6,0.4c-0.2,0.2-0.2,0.4-0.2,0.7v28.7   c0,0.3,0.1,0.5,0.2,0.7c0.1,0.2,0.4,0.3,0.6,0.4c0.2,0.1,0.4,0.1,0.7,0.2c0.3,0,0.6,0.1,1,0.1c0.5,0,0.8,0,1.1-0.1   c0.3,0,0.5-0.1,0.7-0.2c0.3-0.1,0.5-0.3,0.6-0.4c0.2-0.2,0.2-0.4,0.2-0.7V21.9l11.7,20.2l0.1,0.1c0.2,0.2,0.4,0.3,0.6,0.4   c0.2,0.1,0.4,0.1,0.7,0.2c0.3,0,0.6,0.1,1,0.1c0.5,0,0.8,0,1.1-0.1c0.3,0,0.5-0.1,0.7-0.2c0.3-0.1,0.5-0.3,0.6-0.4   c0.2-0.2,0.2-0.4,0.2-0.7V12.8c0-0.3-0.1-0.5-0.2-0.7C969.2,11.9,968.9,11.7,968.7,11.6z" />
    <path fill="#62B54F" d="M1087.6,37.8V27.1l0-0.7h-0.1c-0.1-0.5-0.3-0.8-0.7-1.1c-0.5-0.4-1-0.6-1.5-0.6H1075   c-0.3,0-0.5,0.1-0.7,0.2c-0.2,0.1-0.3,0.4-0.4,0.6c-0.1,0.2-0.1,0.4-0.2,0.7c0,0.3-0.1,0.6-0.1,1c0,0.5,0,0.8,0.1,1.1   c0,0.3,0.1,0.5,0.2,0.7c0.1,0.3,0.3,0.5,0.4,0.6c0.2,0.2,0.4,0.2,0.7,0.2h7.3v7.1c-0.4,0.2-0.8,0.4-1.3,0.5   c-0.8,0.3-1.8,0.4-2.9,0.4c-1.3,0-2.5-0.2-3.5-0.7c-1-0.5-1.9-1.1-2.5-2c-0.7-0.9-1.3-2-1.6-3.4c-0.4-1.4-0.6-3-0.6-4.8   c0-1.8,0.2-3.5,0.6-4.9c0.4-1.4,1-2.6,1.7-3.5c0.7-0.9,1.5-1.6,2.5-2.1c1-0.5,2.1-0.7,3.3-0.7c1.1,0,2.1,0.1,2.9,0.4   c0.8,0.3,1.5,0.6,2.1,0.9c0.6,0.3,1,0.6,1.4,0.9c0.5,0.4,0.9,0.6,1.3,0.6c0.3,0,0.5-0.1,0.7-0.3c0.2-0.2,0.3-0.4,0.4-0.6   c0.1-0.2,0.1-0.4,0.2-0.7c0-0.3,0.1-0.5,0.1-0.9c0-0.3,0-0.6,0-0.8c0-0.2-0.1-0.4-0.1-0.6c-0.1-0.2-0.1-0.4-0.2-0.5   c-0.1-0.2-0.3-0.4-0.5-0.6c-0.2-0.2-0.7-0.5-1.2-0.9c-0.6-0.3-1.2-0.6-1.9-0.9c-0.7-0.2-1.5-0.5-2.3-0.6c-0.8-0.2-1.7-0.2-2.6-0.2   c-2,0-3.9,0.4-5.6,1.1c-1.7,0.7-3.1,1.8-4.3,3.2c-1.2,1.4-2.1,3.1-2.8,5.1c-0.7,2-1,4.3-1,6.8c0,2.4,0.3,4.6,0.9,6.5   c0.6,1.9,1.5,3.5,2.6,4.9c1.1,1.3,2.6,2.3,4.2,3c1.6,0.7,3.5,1,5.5,1c1.2,0,2.2-0.1,3.2-0.3c1-0.2,1.8-0.5,2.6-0.8   c0.8-0.3,1.4-0.6,1.9-1C1087.5,39.4,1087.6,38,1087.6,37.8z" />
    <path fill="#62B54F" d="M995.7,27.1l0-0.7h-0.1c-0.1-0.5-0.3-0.8-0.7-1.1c-0.5-0.4-1-0.6-1.5-0.6h-10.3c-0.3,0-0.5,0.1-0.7,0.2   c-0.2,0.1-0.3,0.4-0.4,0.6c-0.1,0.2-0.1,0.4-0.2,0.7c0,0.3-0.1,0.6-0.1,1c0,0.5,0,0.8,0.1,1.1c0,0.3,0.1,0.5,0.2,0.7   c0.1,0.3,0.3,0.5,0.4,0.6c0.2,0.2,0.4,0.2,0.7,0.2h7.3v7.1c-0.4,0.2-0.8,0.4-1.3,0.5c-0.8,0.3-1.8,0.4-2.9,0.4   c-1.3,0-2.5-0.2-3.5-0.7c-1-0.5-1.9-1.1-2.5-2c-0.7-0.9-1.2-2-1.6-3.4c-0.4-1.4-0.6-3-0.6-4.8c0-1.8,0.2-3.5,0.6-4.9   c0.4-1.4,1-2.6,1.7-3.5c0.7-0.9,1.5-1.6,2.5-2.1c1-0.5,2.1-0.7,3.3-0.7c1.1,0,2.1,0.1,2.9,0.4c0.8,0.3,1.5,0.6,2.1,0.9   c0.6,0.3,1,0.6,1.4,0.9c0.5,0.4,0.9,0.6,1.3,0.6c0.3,0,0.5-0.1,0.7-0.3c0.2-0.1,0.3-0.4,0.4-0.6c0.1-0.2,0.1-0.4,0.2-0.7   c0-0.3,0.1-0.5,0.1-0.9c0-0.3,0-0.6,0-0.8c0-0.2-0.1-0.4-0.1-0.6c-0.1-0.2-0.1-0.4-0.2-0.5c-0.1-0.2-0.3-0.4-0.5-0.6   c-0.2-0.2-0.7-0.5-1.2-0.9c-0.6-0.3-1.2-0.6-2-0.9c-0.7-0.2-1.5-0.5-2.3-0.6c-0.8-0.2-1.7-0.2-2.6-0.2c-2,0-3.9,0.4-5.6,1.1   c-1.7,0.7-3.1,1.8-4.3,3.2c-1.2,1.4-2.1,3.1-2.8,5.1c-0.7,2-1,4.3-1,6.8c0,2.4,0.3,4.6,0.9,6.5c0.6,1.9,1.5,3.5,2.6,4.9   c1.1,1.3,2.6,2.3,4.2,3c1.6,0.7,3.5,1,5.5,1c1.2,0,2.2-0.1,3.2-0.3c1-0.2,1.8-0.5,2.6-0.8c0.8-0.3,1.4-0.6,1.9-1   c2.2-1.4,2.3-2.8,2.2-2.9V27.1z" />
    <path fill-rule="evenodd" clip-rule="evenodd" fill="#62B54F" d="M915.9,10.2c-0.7-1.9-1.7-3.4-3-4.6c-1.3-1.2-2.8-2.2-4.6-2.8   c-1.8-0.6-3.8-0.9-6-0.9c-0.1,0-13.1,0-13.1,0c-0.5,0-1,0.2-1.5,0.5c-0.4,0.4-0.7,1-0.7,1.8v36.4c0,0.8,0.2,1.4,0.7,1.8   c0.4,0.4,0.9,0.5,1.5,0.5h12.8c2.3,0,4.3-0.4,6.1-1c1.9-0.7,3.5-1.7,4.8-3c1.3-1.3,2.3-2.9,3-4.8c0.7-1.9,1.1-4,1.1-6.4V16.6   C917,14.2,916.6,12,915.9,10.2z M911.7,27.7c0,1.8-0.2,3.3-0.7,4.6c-0.4,1.3-1.1,2.4-1.9,3.3c-0.8,0.9-1.8,1.6-3,2   c-1.2,0.4-2.6,0.7-4.1,0.7c0,0,0,0,0,0v0h-9.5V6.3h9.5v0c1.5,0,2.8,0.2,4,0.7c1.2,0.5,2.2,1.1,3,2c0.8,0.9,1.5,2,1.9,3.4   c0.5,1.4,0.7,3,0.7,4.8V27.7z" />
  </g>
  <g>
    <path fill-rule="evenodd" clip-rule="evenodd" fill="#62B54F" d="M903.8-41.7c-0.7,0.6-1.5,1.2-2.2,1.8c-0.6,0.6-1,0.9-1.3,0.9   c-1.4,0-2.1-0.6-2.1-1.8c0-0.4,0.2-0.8,0.5-1.1c2-1.5,3.8-3,5.4-4.8c1.7-1.9,3.1-4.1,4.2-6.5c0.2-0.8,0.6-1.2,1.3-1.2   c0.5,0,1,0.1,1.3,0.4c0.4,0.4,0.6,0.8,0.6,1.3c0,0.3-0.1,0.6-0.2,1C909.4-46.8,907.3-45.3,903.8-41.7 M907.7-33.5v-5.4   c0-0.7-0.4-1.5-0.9-1.9l-1.7-1c-0.5-0.3-0.9,0-0.9,0.7v7.6v1.5v2.2v3.7v1.2c0,0.7,0.4,1.6,1,1.9l1.6,0.9c0.5,0.3,1,0,1-0.8v-3.3   v-1.7v-2.1V-33.5z M934.7-46.9c0-0.7-0.4-1.5-1-1.7l-1.8-0.9c-0.5-0.3-1,0.1-1,0.7v20.5c0,1.9-0.4,2.9-1.3,2.9   c-1.2,0-3.9-0.5-7.9-1.4c-0.7-0.1-1.2-0.2-1.6-0.2c-1.1,0.1-1.7,0.7-1.7,2c0,1,0.5,1.6,1.5,1.9c3.9,1.1,7,1.6,9.3,1.6   c3.6,0,5.4-2,5.4-6.1C934.7-27.7,934.7-46.1,934.7-46.9z M916.5-53.4h27.1c0.6,0,0.7,0.5,0.4,1l-0.9,1.5c-0.3,0.6-1,1-1.6,1h-27.1   c-0.6,0-0.8-0.5-0.4-1l0.9-1.5C915.2-53,915.9-53.4,916.5-53.4z M918.8-65.3h22.2c0.6,0,0.8,0.5,0.5,1l-0.8,1.5c-0.3,0.6-1,1-1.6,1   h-22.2c-0.6,0-0.8-0.5-0.5-1l0.8-1.5C917.5-64.8,918.2-65.3,918.8-65.3z M848.7-49.5h18.5c0.5,0,0.7,0.4,0.5,0.9l-0.7,1.4   c-0.3,0.5-0.9,1-1.4,1h-7.1l-5.2,15.2c0.8-0.1,1.6-0.2,2.4-0.3c2.9-0.6,5.9-1.5,8.9-2.7c-0.6-1.4-1.1-2.6-1.7-3.5   c-0.3-0.4-0.4-0.8-0.4-1c0-1.1,0.7-1.6,2-1.6c0.5,0,0.9,0.3,1.3,1c1.4,2.3,2.5,4.9,3.5,7.8c0.2,0.5,0.3,0.9,0.3,1.3   c0,1.1-0.7,1.6-2.1,1.6c-0.6,0-1.1-0.4-1.4-1.3c-0.1-0.3-0.2-0.6-0.3-0.8c-2.3,1-4.7,1.8-7.4,2.5c-3.3,0.7-6.4,1.1-9.3,1.3   c-1.4,0-2.1-0.6-2.1-1.9c0.1-1,0.6-1.5,1.6-1.5c0.3,0,0.6-0.1,0.9-0.1l5.5-15.8h-7.8c-0.5,0-0.7-0.4-0.5-1l0.7-1.4   C847.6-49,848.2-49.5,848.7-49.5z M805.9-40c1.2,0,1.9,0.7,1.9,2.1c-0.4,2.7-1,5.3-1.8,7.8c-0.8,2.6-1.9,5.1-3.4,7.5   c-0.4,0.8-1.1,1.2-1.9,1.2c-1.3,0-2-0.6-2-1.8c0-0.2,0.1-0.5,0.2-0.9c1.7-3,2.8-5.2,3.2-6.7c0.8-2.2,1.5-4.9,2.1-7.9   C804.6-39.6,805.1-40,805.9-40z M800-53.5c0.3,0,0.7,0.2,1,0.7c1.9,1.5,3.7,3.1,5.4,4.9c0.3,0.5,0.4,1,0.4,1.3   c0,1.2-0.7,1.8-2.1,1.8c-0.3,0-0.7-0.2-1.1-0.4c-1.7-1.8-3.5-3.6-5.4-5.3c-0.4-0.5-0.5-0.8-0.5-1C797.8-52.8,798.6-53.5,800-53.5z    M803.7-66.7c0.3,0,0.7,0.2,1.1,0.7c1.7,1.3,3.4,2.8,5,4.5c0.3,0.5,0.4,0.9,0.4,1.3c0,1.2-0.7,1.8-2.1,1.8c-0.3,0-0.7-0.1-1.1-0.4   c-1.6-1.6-3.3-3.2-5.1-4.7c-0.4-0.5-0.6-0.9-0.6-1.1C801.4-66,802.1-66.7,803.7-66.7z M841.3-22.9c0,0.4-0.3,0.6-0.6,0.4l-2.4-0.9   c-0.3-0.1-0.6-0.5-0.6-0.9v-12.2c0-1.2-0.6-1.8-1.8-1.8h-18.2c-1.2,0-1.8,0.6-1.8,1.8v8.7c0,1.2,0.6,1.8,1.8,1.8h14.4v0h3.5   c0.5,0,0.7,0.4,0.5,0.9l-0.8,1.8c-0.2,0.5-0.8,0.9-1.3,0.9h-2v0h-16.4c-2.2,0-3.4-1.1-3.4-3.4v-12.7c0-2.2,1.1-3.4,3.4-3.4H838   c2.2,0,3.4,1.1,3.4,3.4V-22.9z M814.2-54.6h10.5V-61c0-0.6,0.4-0.9,0.9-0.7l1.9,0.6c0.5,0.2,0.9,0.7,0.9,1.3v5.2h12.5   c0.6,0,0.8,0.5,0.6,1l-0.8,1.8c-0.3,0.6-0.9,1-1.5,1h-10.8v7.2c0,0.5-0.4,0.9-0.9,0.7l-1.9-0.6c-0.5-0.2-0.9-0.7-0.9-1.3v-6h-12.2   c-0.6,0-0.8-0.5-0.6-1l0.8-1.8C812.9-54.2,813.6-54.6,814.2-54.6z M850.6-59.4h16.5c0.6,0,0.8,0.5,0.6,1l-0.6,1.5   c-0.2,0.6-0.9,1-1.4,1h-16.5c-0.6,0-0.8-0.5-0.6-1l0.6-1.5C849.4-58.9,850.1-59.4,850.6-59.4z M840.5-66.6c1.2,0,1.8,0.7,1.8,2.1   c0,1-0.8,1.5-2.3,1.7c-3,0.2-6.9,0.5-11.8,0.7l-3.6,0.1c-5.2,0.2-8.8,0.3-10.9,0.3c-1.4,0-2.1-0.7-2.1-2c0-1.1,0.6-1.7,1.8-1.7   c4.7,0,9.1-0.1,13.1-0.3C831.6-65.9,836.3-66.2,840.5-66.6z M872.4-59.4h4.2v-5.3v-0.1v-1.7c0-0.9,0.6-1.3,1.3-1l0.9,0.4   c0.7,0.3,1.3,1.2,1.3,2.1v0.2v5.4l8.3,0c2.4,0,3.6,1.4,3.6,4.2c0,7.5-0.2,14.3-0.6,20.4c-0.3,5.5-1.1,9-2.3,10.7   c-1.3,1.8-3.1,2.7-5.6,2.7c-2,0-4.2-0.4-6.6-1.3c-0.9-0.5-1.4-1.1-1.4-1.8c0-1.4,0.7-2.1,2-2.1c2.4,0.9,4.3,1.4,5.6,1.4   c1.6,0,2.7-0.8,3.3-2.3c0.7-1.6,1.1-4.5,1.4-8.9c0.2-4.8,0.3-10.6,0.3-17.4c0-1.4-0.6-2-1.8-2h-5.1h-1.1v0.8c0,6.7-1,13-3.1,18.9   c-1.8,5-4.3,9.5-7.4,13.3c-0.4,0.7-0.9,1.1-1.4,1.1c-1.4-0.1-2.2-0.7-2.2-1.9c0-0.3,0.2-0.7,0.6-1.1c4.1-5.4,6.9-11,8.3-16.8   c1.2-4.5,1.7-9,1.7-13.5v-0.8h-3.9h-1.7c-0.6,0-0.8-0.5-0.6-1l0.6-1.5C871.2-58.9,871.8-59.4,872.4-59.4z M908.7-67.5   c0.5,0,1,0.1,1.3,0.4c0.4,0.4,0.6,0.8,0.6,1.3c0,0.3-0.1,0.6-0.2,1c-1,2.6-2.3,4.8-3.9,6.7c-1.5,1.8-3.1,3.5-5,5   c-0.5,0.6-0.9,0.8-1.2,0.8c-1.3,0-2-0.6-2-1.7c0-0.4,0.2-0.7,0.5-1c1.8-1.4,3.4-3.1,4.7-4.8c1.5-1.8,2.8-4,3.7-6.5   C907.6-67.1,908-67.5,908.7-67.5z" />
    <path fill="#62B54F" d="M783.3-68.8L757.2-66c-1,0.1-1.7,0.9-1.7,1.9v0.4v33.5v0.4c0,0.7,0.4,1.4,1.1,1.7l17.8,7.9   c0.2,0.1,0.5,0.2,0.8,0.2c0.4,0,0.7-0.1,1-0.3c0.5-0.3,0.9-0.9,0.9-1.6v-8.5l6.2-0.7c1.5-0.2,2.7-1.5,2.7-3v-32.1   C786-67.8,784.8-68.9,783.3-68.8z M782.3-35.9c0,0.6-0.5,1.1-1.1,1.2l-4,0.4v-21.6c0-0.7-0.4-1.4-1.1-1.7L764-62.9l17-1.8   c0.7,0,1.3,0.6,1.3,1.3V-35.9z" />
  </g>
  <g>
    <rect x="328.5" y="67.5" fill="#1C87C9" width="136.1" height="56.7" />
    <text transform="matrix(1 0 0 1 350.2082 92.4489)">
      <tspan x="0" y="0" fill="#FFFFFF" font-family="'MicrosoftJhengHeiRegular'" font-size="12">CMYK</tspan>
      <tspan x="35" y="0" fill="#FFFFFF" font-family="'MicrosoftJhengHeiRegular'" font-size="12" letter-spacing="-1">
      </tspan>
      <tspan x="36" y="0" fill="#FFFFFF" font-family="'MicrosoftJhengHeiRegular'" font-size="12">80/37/0/0</tspan>
      <tspan x="0" y="14.4" fill="#FFFFFF" font-family="'MicrosoftJhengHeiRegular'" font-size="12">Web</tspan>
      <tspan x="27.5" y="14.4" fill="#FFFFFF" font-family="'MicrosoftJhengHeiRegular'" font-size="12" letter-spacing="5">
      </tspan>
      <tspan x="36" y="14.4" fill="#FFFFFF" font-family="'MicrosoftJhengHeiRegular'" font-size="12">#0088D2</tspan>
    </text>
  </g>
  <g>
    <rect x="464.6" y="67.5" fill="#005D9B" width="136.1" height="56.7" />
    <text transform="matrix(1 0 0 1 482.7936 92.4489)">
      <tspan x="0" y="0" fill="#FFFFFF" font-family="'MicrosoftJhengHeiRegular'" font-size="12">CMYK</tspan>
      <tspan x="35" y="0" fill="#FFFFFF" font-family="'MicrosoftJhengHeiRegular'" font-size="12" letter-spacing="-1">
      </tspan>
      <tspan x="36" y="0" fill="#FFFFFF" font-family="'MicrosoftJhengHeiRegular'" font-size="12">96/67/12/1</tspan>
      <tspan x="0" y="14.4" fill="#FFFFFF" font-family="'MicrosoftJhengHeiRegular'" font-size="12">Web</tspan>
      <tspan x="27.5" y="14.4" fill="#FFFFFF" font-family="'MicrosoftJhengHeiRegular'" font-size="12" letter-spacing="5">
      </tspan>
      <tspan x="36" y="14.4" fill="#FFFFFF" font-family="'MicrosoftJhengHeiRegular'" font-size="12">#005D9B</tspan>
    </text>
  </g>
  <g>
    <rect x="600.7" y="67.5" fill="#064973" width="136.1" height="56.7" />
    <text transform="matrix(1 0 0 1 611.9005 92.4489)">
      <tspan x="0" y="0" fill="#FFFFFF" font-family="'MicrosoftJhengHeiRegular'" font-size="12">CMYK</tspan>
      <tspan x="35" y="0" fill="#FFFFFF" font-family="'MicrosoftJhengHeiRegular'" font-size="12" letter-spacing="-1">
      </tspan>
      <tspan x="36" y="0" fill="#FFFFFF" font-family="'MicrosoftJhengHeiRegular'" font-size="12">100/75/32/16</tspan>
      <tspan x="0" y="14.4" fill="#FFFFFF" font-family="'MicrosoftJhengHeiRegular'" font-size="12">Web</tspan>
      <tspan x="27.5" y="14.4" fill="#FFFFFF" font-family="'MicrosoftJhengHeiRegular'" font-size="12" letter-spacing="5">
      </tspan>
      <tspan x="36" y="14.4" fill="#FFFFFF" font-family="'MicrosoftJhengHeiRegular'" font-size="12">#004873</tspan>
    </text>
  </g>
  <g>
    <rect x="891.6" y="67.5" fill="#30A249" width="136.1" height="56.7" />
    <text transform="matrix(1 0 0 1 906.296 92.4489)">
      <tspan x="0" y="0" fill="#FFFFFF" font-family="'MicrosoftJhengHeiRegular'" font-size="12">CMYK</tspan>
      <tspan x="35" y="0" fill="#FFFFFF" font-family="'MicrosoftJhengHeiRegular'" font-size="12" letter-spacing="-1">
      </tspan>
      <tspan x="36" y="0" fill="#FFFFFF" font-family="'MicrosoftJhengHeiRegular'" font-size="12">80/12/100/0</tspan>
      <tspan x="0" y="14.4" fill="#FFFFFF" font-family="'MicrosoftJhengHeiRegular'" font-size="12">Web</tspan>
      <tspan x="27.5" y="14.4" fill="#FFFFFF" font-family="'MicrosoftJhengHeiRegular'" font-size="12" letter-spacing="5">
      </tspan>
      <tspan x="36" y="14.4" fill="#FFFFFF" font-family="'MicrosoftJhengHeiRegular'" font-size="12">#2C9F33</tspan>
    </text>
  </g>
  <g>
    <rect x="755.5" y="67.5" fill="#62B54F" width="136.1" height="56.7" />
    <text transform="matrix(1 0 0 1 777.1876 92.4489)">
      <tspan x="0" y="0" fill="#FFFFFF" font-family="'MicrosoftJhengHeiRegular'" font-size="12">CMYK</tspan>
      <tspan x="35" y="0" fill="#FFFFFF" font-family="'MicrosoftJhengHeiRegular'" font-size="12" letter-spacing="-1">
      </tspan>
      <tspan x="36" y="0" fill="#FFFFFF" font-family="'MicrosoftJhengHeiRegular'" font-size="12">66/3/93/0</tspan>
      <tspan x="0" y="14.4" fill="#FFFFFF" font-family="'MicrosoftJhengHeiRegular'" font-size="12">Web</tspan>
      <tspan x="27.5" y="14.4" fill="#FFFFFF" font-family="'MicrosoftJhengHeiRegular'" font-size="12" letter-spacing="5">
      </tspan>
      <tspan x="36" y="14.4" fill="#FFFFFF" font-family="'MicrosoftJhengHeiRegular'" font-size="12">#62B651</tspan>
    </text>
  </g>
  <g>
    <rect x="-15.2" y="295.2" fill="#F26722" width="136.1" height="56.7" />
    <text transform="matrix(1 0 0 1 2.9801 320.1207)">
      <tspan x="0" y="0" fill="#FFFFFF" font-family="'MicrosoftJhengHeiRegular'" font-size="12">CMYK</tspan>
      <tspan x="35" y="0" fill="#FFFFFF" font-family="'MicrosoftJhengHeiRegular'" font-size="12" letter-spacing="-1">
      </tspan>
      <tspan x="36" y="0" fill="#FFFFFF" font-family="'MicrosoftJhengHeiRegular'" font-size="12">0/74/100/0</tspan>
      <tspan x="0" y="14.4" fill="#FFFFFF" font-family="'MicrosoftJhengHeiRegular'" font-size="12">Web</tspan>
      <tspan x="27.5" y="14.4" fill="#FFFFFF" font-family="'MicrosoftJhengHeiRegular'" font-size="12" letter-spacing="5">
      </tspan>
      <tspan x="36" y="14.4" fill="#FFFFFF" font-family="'MicrosoftJhengHeiRegular'" font-size="12">#FF6600</tspan>
    </text>
  </g>
  <g>
    <rect x="120.9" y="295.2" fill="#F8991D" width="136.1" height="56.7" />
    <text transform="matrix(1 0 0 1 139.0436 320.1207)">
      <tspan x="0" y="0" fill="#FFFFFF" font-family="'MicrosoftJhengHeiRegular'" font-size="12">CMYK</tspan>
      <tspan x="35" y="0" fill="#FFFFFF" font-family="'MicrosoftJhengHeiRegular'" font-size="12" letter-spacing="-1">
      </tspan>
      <tspan x="36" y="0" fill="#FFFFFF" font-family="'MicrosoftJhengHeiRegular'" font-size="12">0/47/100/0</tspan>
      <tspan x="0" y="14.4" fill="#FFFFFF" font-family="'MicrosoftJhengHeiRegular'" font-size="12">Web</tspan>
      <tspan x="27.5" y="14.4" fill="#FFFFFF" font-family="'MicrosoftJhengHeiRegular'" font-size="12" letter-spacing="5">
      </tspan>
      <tspan x="36" y="14.4" fill="#FFFFFF" font-family="'MicrosoftJhengHeiRegular'" font-size="12">#FF9900</tspan>
    </text>
  </g>
  <g>
    <rect x="755.5" y="181.8" fill="#121212" width="136.1" height="56.7" />
    <text transform="matrix(1 0 0 1 770.2325 206.736)">
      <tspan x="0" y="0" fill="#FFFFFF" font-family="'MicrosoftJhengHeiRegular'" font-size="12">CMYK</tspan>
      <tspan x="35" y="0" fill="#FFFFFF" font-family="'MicrosoftJhengHeiRegular'" font-size="12" letter-spacing="-1">
      </tspan>
      <tspan x="36" y="0" fill="#FFFFFF" font-family="'MicrosoftJhengHeiRegular'" font-size="12">73/67/66/83</tspan>
      <tspan x="0" y="14.4" fill="#FFFFFF" font-family="'MicrosoftJhengHeiRegular'" font-size="12">Web</tspan>
      <tspan x="27.5" y="14.4" fill="#FFFFFF" font-family="'MicrosoftJhengHeiRegular'" font-size="12" letter-spacing="5">
      </tspan>
      <tspan x="36" y="14.4" fill="#FFFFFF" font-family="'MicrosoftJhengHeiRegular'" font-size="12">#111111</tspan>
    </text>
  </g>
  <g>
    <rect x="891.6" y="181.8" fill="#333333" width="136.1" height="56.7" />
    <text transform="matrix(1 0 0 1 906.295 206.736)">
      <tspan x="0" y="0" fill="#FFFFFF" font-family="'MicrosoftJhengHeiRegular'" font-size="12">CMYK</tspan>
      <tspan x="35" y="0" fill="#FFFFFF" font-family="'MicrosoftJhengHeiRegular'" font-size="12" letter-spacing="-1">
      </tspan>
      <tspan x="36" y="0" fill="#FFFFFF" font-family="'MicrosoftJhengHeiRegular'" font-size="12">69/63/62/58</tspan>
      <tspan x="0" y="14.4" fill="#FFFFFF" font-family="'MicrosoftJhengHeiRegular'" font-size="12">Web</tspan>
      <tspan x="27.5" y="14.4" fill="#FFFFFF" font-family="'MicrosoftJhengHeiRegular'" font-size="12" letter-spacing="5">
      </tspan>
      <tspan x="36" y="14.4" fill="#FFFFFF" font-family="'MicrosoftJhengHeiRegular'" font-size="12">#333333</tspan>
    </text>
  </g>
  <g>
    <rect x="755.5" y="238.5" fill="#666766" width="136.1" height="56.7" />
    <text transform="matrix(1 0 0 1 770.2325 263.4283)">
      <tspan x="0" y="0" fill="#FFFFFF" font-family="'MicrosoftJhengHeiRegular'" font-size="12">CMYK</tspan>
      <tspan x="35" y="0" fill="#FFFFFF" font-family="'MicrosoftJhengHeiRegular'" font-size="12" letter-spacing="-1">
      </tspan>
      <tspan x="36" y="0" fill="#FFFFFF" font-family="'MicrosoftJhengHeiRegular'" font-size="12">60/51/51/20</tspan>
      <tspan x="0" y="14.4" fill="#FFFFFF" font-family="'MicrosoftJhengHeiRegular'" font-size="12">Web</tspan>
      <tspan x="27.5" y="14.4" fill="#FFFFFF" font-family="'MicrosoftJhengHeiRegular'" font-size="12" letter-spacing="5">
      </tspan>
      <tspan x="36" y="14.4" fill="#FFFFFF" font-family="'MicrosoftJhengHeiRegular'" font-size="12">#666666</tspan>
    </text>
  </g>
  <g>
    <rect x="891.6" y="238.5" fill="#999999" width="136.1" height="56.7" />
    <text transform="matrix(1 0 0 1 909.7731 263.4283)">
      <tspan x="0" y="0" fill="#FFFFFF" font-family="'MicrosoftJhengHeiRegular'" font-size="12">CMYK</tspan>
      <tspan x="35" y="0" fill="#FFFFFF" font-family="'MicrosoftJhengHeiRegular'" font-size="12" letter-spacing="-1">
      </tspan>
      <tspan x="36" y="0" fill="#FFFFFF" font-family="'MicrosoftJhengHeiRegular'" font-size="12">43/35/35/1</tspan>
      <tspan x="0" y="14.4" fill="#FFFFFF" font-family="'MicrosoftJhengHeiRegular'" font-size="12">Web</tspan>
      <tspan x="27.5" y="14.4" fill="#FFFFFF" font-family="'MicrosoftJhengHeiRegular'" font-size="12" letter-spacing="5">
      </tspan>
      <tspan x="36" y="14.4" fill="#FFFFFF" font-family="'MicrosoftJhengHeiRegular'" font-size="12">#999999</tspan>
    </text>
  </g>
  <g>
    <rect x="755.5" y="295.2" fill="#CCCCCC" width="136.1" height="56.7" />
    <text transform="matrix(1 0 0 1 773.7106 320.1207)">
      <tspan x="0" y="0" font-family="'MicrosoftJhengHeiRegular'" font-size="12">CMYK</tspan>
      <tspan x="35" y="0" font-family="'MicrosoftJhengHeiRegular'" font-size="12" letter-spacing="-1"> </tspan>
      <tspan x="36" y="0" font-family="'MicrosoftJhengHeiRegular'" font-size="12">19/15/16/0</tspan>
      <tspan x="0" y="14.4" font-family="'MicrosoftJhengHeiRegular'" font-size="12">Web</tspan>
      <tspan x="27.5" y="14.4" font-family="'MicrosoftJhengHeiRegular'" font-size="12" letter-spacing="5"> </tspan>
      <tspan x="36" y="14.4" font-family="'MicrosoftJhengHeiRegular'" font-size="12">#CCCCCC</tspan>
    </text>
  </g>
  <g>
    <rect x="891.6" y="295.2" fill="#EEEEEE" width="136.1" height="56.7" />
    <text transform="matrix(1 0 0 1 918.193 320.1207)">
      <tspan x="0" y="0" font-family="'MicrosoftJhengHeiRegular'" font-size="12">CMYK</tspan>
      <tspan x="35" y="0" font-family="'MicrosoftJhengHeiRegular'" font-size="12" letter-spacing="-1"> </tspan>
      <tspan x="36" y="0" font-family="'MicrosoftJhengHeiRegular'" font-size="12">5/4/4/0</tspan>
      <tspan x="0" y="14.4" font-family="'MicrosoftJhengHeiRegular'" font-size="12">Web</tspan>
      <tspan x="27.5" y="14.4" font-family="'MicrosoftJhengHeiRegular'" font-size="12" letter-spacing="5"> </tspan>
      <tspan x="36" y="14.4" font-family="'MicrosoftJhengHeiRegular'" font-size="12">#EEEEEE</tspan>
    </text>
  </g>
  <g>
    <path fill-rule="evenodd" clip-rule="evenodd" fill="#1C87C9" d="M413,161.5c1.2,0,1.8,0.7,1.8,2c0,0.9-0.7,1.5-2.2,1.7   c-3,0.2-6.8,0.5-11.6,0.7l-3.5,0.1c-5.1,0.2-8.7,0.3-10.8,0.3c-1.4,0-2.1-0.7-2.1-2c0-1.1,0.6-1.7,1.8-1.7c4.7,0,9-0.1,12.9-0.3   C404.1,162.2,408.7,161.9,413,161.5L413,161.5z" />
    <path fill-rule="evenodd" clip-rule="evenodd" fill="#1C87C9" d="M386.9,173.3c-0.6,0-1.2,0.5-1.5,1l-0.8,1.8c-0.3,0.6,0,1,0.6,1   h12.1v5.9c0,0.5,0.4,1.1,0.9,1.3l1.9,0.6c0.5,0.2,0.9-0.2,0.9-0.7v-7.1h10.6c0.6,0,1.2-0.5,1.5-1l0.8-1.8c0.3-0.6,0-1-0.6-1H401   v-5.1c0-0.5-0.4-1.1-0.9-1.3l-1.9-0.6c-0.5-0.2-0.9,0.2-0.9,0.7v6.3H386.9L386.9,173.3z" />
    <path fill-rule="evenodd" clip-rule="evenodd" fill="#1C87C9" d="M413.7,204.5c0,0.3-0.3,0.5-0.6,0.4l-2.4-0.9   c-0.3-0.1-0.6-0.5-0.6-0.8v-12c0-1.2-0.6-1.8-1.8-1.8h-17.9c-1.2,0-1.8,0.6-1.8,1.8v8.6c0,1.2,0.6,1.8,1.8,1.8l17.7,0   c0.5,0,0.7,0.4,0.5,0.9l-0.7,1.8c-0.2,0.5-0.8,0.9-1.2,0.9l-18.1,0c-2.2,0-3.3-1.1-3.3-3.3v-12.5c0-2.2,1.1-3.3,3.3-3.3h21.8   c2.2,0,3.3,1.1,3.3,3.3v10.2V204.5z" />
    <path fill-rule="evenodd" clip-rule="evenodd" fill="#1C87C9" d="M376.6,161.4c0.3,0,0.7,0.2,1.1,0.7c1.7,1.3,3.4,2.8,5,4.4   c0.3,0.5,0.4,0.9,0.4,1.3c0,1.2-0.7,1.8-2,1.8c-0.3,0-0.7-0.1-1.1-0.4c-1.6-1.6-3.3-3.1-5.1-4.6c-0.4-0.5-0.6-0.9-0.6-1.1   C374.4,162.1,375.1,161.4,376.6,161.4L376.6,161.4z" />
    <path fill-rule="evenodd" clip-rule="evenodd" fill="#1C87C9" d="M373,174.4c0.3,0,0.7,0.2,1,0.7c1.9,1.4,3.7,3.1,5.4,4.9   c0.3,0.5,0.4,0.9,0.4,1.3c0,1.2-0.7,1.8-2,1.8c-0.3,0-0.7-0.2-1.1-0.4c-1.7-1.8-3.4-3.5-5.3-5.2c-0.4-0.5-0.5-0.8-0.5-1   C370.9,175.1,371.6,174.4,373,174.4L373,174.4z" />
    <path fill-rule="evenodd" clip-rule="evenodd" fill="#1C87C9" d="M378.8,187.7c1.2,0,1.8,0.7,1.8,2c-0.4,2.6-0.9,5.2-1.8,7.7   c-0.8,2.5-1.9,5-3.3,7.4c-0.4,0.8-1,1.2-1.9,1.2c-1.3,0-1.9-0.6-1.9-1.8c0-0.2,0.1-0.5,0.2-0.9c1.7-3,2.7-5.2,3.2-6.6   c0.8-2.2,1.5-4.8,2-7.8C377.5,188.1,378,187.7,378.8,187.7L378.8,187.7z" />
  </g>
  <g>
    <path fill-rule="evenodd" clip-rule="evenodd" fill="#1C87C9" d="M447.8,170.2c-0.5,0-1.2,0.5-1.4,1l-0.6,1.5c-0.2,0.5,0,1,0.6,1   h6.6c-0.2,2.9-0.5,5.8-0.9,8.6c-1.2,7.8-3.5,14.7-6.8,20.8c-0.3,0.6-0.5,1-0.5,1.1c0,1.4,0.7,2,2,2c0.6,0,1.1-0.3,1.6-0.9   c3.5-6.4,5.9-13.7,7.2-21.9c0.4-3.1,0.7-6.3,0.9-9.7h0.1c0.1,0,0.1,0,0.2,0h3.3c1.1,0,1.7,0.6,1.7,1.8c0,6.4-0.1,11.9-0.3,16.5   c-0.2,4.1-0.5,6.9-1.1,8.4c-0.5,1.5-1.4,2.2-2.7,2.2c-0.8,0-2.1-0.4-3.8-1.1c-1.3,0-1.9,0.7-1.9,2c0,0.7,0.4,1.2,1.3,1.7   c1.7,0.7,3.3,1,4.7,1c2.1,0,3.7-0.8,4.8-2.5c1-1.6,1.7-5,2-10.1c0.3-5.8,0.5-12.2,0.5-19.4c0-2.7-1.1-4-3.3-4h-5.3   c0.1-2.4,0.2-4.8,0.2-7.4h0v-0.1c0-0.8-0.6-1.8-1.3-2.1l-0.9-0.4c-0.7-0.3-1.3,0.1-1.3,1v1.6c0,2.5-0.1,5-0.2,7.4L447.8,170.2   L447.8,170.2z" />
    <path fill-rule="evenodd" clip-rule="evenodd" fill="#1C87C9" d="M445.2,177.4c0-1.8-0.9-2.7-2.8-2.7h-6.2v-2.9h6.2   c0.5,0,1-0.4,1.2-0.9l0.6-1.5c0.2-0.5,0-0.9-0.5-0.9h-7.6v-0.4c0-0.5-0.4-1.1-0.9-1.3l-2.2-0.7c-0.5-0.2-0.9,0.2-0.9,0.7v1.6h-7.4   c-0.5,0-1,0.4-1.2,0.9l-0.6,1.5c-0.2,0.4-0.1,0.7,0.2,0.8l0,0c0.1,0,0.2,0.1,0.3,0.1h8.7v2.9h-6.8c-1.9,0-2.8,0.9-2.8,2.7v10.1   c0,1.8,0.9,2.7,2.8,2.7h6.8v3.4h-7.4c-0.5,0-1,0.4-1.2,0.9l-0.6,1.5c-0.2,0.5,0,0.9,0.5,0.9h8.7v0.9c0,0.5,0.4,1.1,0.9,1.3l2.2,0.7   c0.5,0.2,0.9-0.2,0.9-0.7V197h6.2c0.5,0,1-0.4,1.2-0.9l0.6-1.5c0.2-0.5,0-0.9-0.5-0.9h-7.6v-3.4h2.7h0.1c0.5,0,1.1-0.4,1.3-0.9   l0.4-1.2c0.2-0.5-0.1-0.9-0.6-0.9h-3.8v-3.4h2.6c0.5,0,1.2-0.4,1.4-0.9l0.6-1c0.3-0.5,0.1-0.9-0.4-0.9h-4.2v-3h4.7   c0.7,0,1.1,0.4,1.1,1.2v8.4c0,0.6,0.4,1.4,0.9,1.6l1.4,0.7c0.5,0.3,0.9-0.1,0.9-0.7L445.2,177.4z M432.2,187.2H427   c-0.7,0-1.1-0.4-1.1-1.2v-2.2h6.3V187.2z M432.2,180.8h-6.3V179c0-0.8,0.4-1.2,1.1-1.2h5.2V180.8z" />
    <path fill-rule="evenodd" clip-rule="evenodd" fill="#1C87C9" d="M442.3,161.2c-2.9,0.5-5.9,1-9.3,1.2c-2.7,0.2-5.6,0.3-8.7,0.3   c-1.1,0-1.7,0.5-1.7,1.6c0,1.3,0.7,1.9,2,1.9c1.3,0,3.8-0.2,7.9-0.5l3.4-0.2c2.3-0.2,4.3-0.5,5.9-0.7c1.4-0.2,2.1-0.7,2.1-1.6   C444,161.9,443.4,161.2,442.3,161.2L442.3,161.2z" />
    <path fill-rule="evenodd" clip-rule="evenodd" fill="#1C87C9" d="M436,201l-3.5,0.4c-3.1,0.3-6.4,0.5-9.9,0.6   c-1.2,0-1.8,0.6-1.8,1.8c0,1.4,0.6,2.1,1.8,2.1c6.6-0.6,13.6-1.4,20.9-2.7c1.1-0.1,1.7-0.7,1.7-1.8c0-1.1-0.5-1.6-1.6-1.6   C441.2,200.3,438.6,200.7,436,201L436,201z" />
  </g>
  <g>
    <path fill-rule="evenodd" clip-rule="evenodd" fill="#1C87C9" d="M473.3,183.6c-0.5,0-1.1,0.4-1.2,1l-0.3,1.5c-0.1,0.5,0.2,1,0.8,1   h1.2v0h2.5c0.5,0,0.7,0.3,0.7,0.8v8.4c0,2-0.4,3.4-1.4,4.1c-0.7,0.7-2.1,1.4-4,2.2c-0.9,0.3-1.4,0.8-1.4,1.7c0.1,1.1,0.8,1.8,2,1.9   c0.4,0,1-0.2,1.9-0.7c1.7-0.8,3.2-1.9,4.6-3.3c0.2-0.3,0.4-0.4,0.6-0.4l0.7,0.4c1.5,1.2,3.4,2,5.5,2.5c2.1,0.6,4.5,0.9,7.2,0.9H513   l1.8,0c0.5,0,1.1-0.4,1.3-0.9l0.7-1.8c0.2-0.5,0-0.9-0.5-0.9h-4.4c0,0-0.1,0-0.1,0c-6.7,0-13.9-0.1-20.5-0.1   c-3.4,0-6.1-0.6-8.1-1.8c-1.7-1-2.5-2.3-2.5-3.8v-10.1c0-1.6-0.8-2.4-2.2-2.5c-0.1,0-0.1,0-0.2,0H473.3L473.3,183.6z" />
    <path fill-rule="evenodd" clip-rule="evenodd" fill="#1C87C9" d="M510.5,172.9h-7.6c-0.1-0.3-0.3-0.6-0.7-0.9   c-0.1,0-0.2-0.1-0.4-0.2c3-1.5,5.1-2.9,6.3-4c1.1-1,1.7-2,1.7-2.9c0-1.8-1-2.6-3-2.6l-21,0c-0.5,0-0.9,0.4-1.1,0.8l-0.3,1.3   c-0.1,0.5,0.1,0.8,0.6,0.8h20.1c0.3,0,0.4,0.2,0.4,0.5c0,0.2-0.2,0.5-0.5,0.8c-1.3,1-3.4,2.3-6.5,4c-1.8-0.7-3.7-1.5-5.7-2.2   c-0.5-0.3-0.9-0.4-1.3-0.4c-1.2,0-1.8,0.6-1.8,1.7c0,0.5,0.4,0.9,1.1,1.5c1.8,0.6,3.5,1.2,5.1,1.9h-8.2c-2.2,0-3.4,1-3.4,2.9v20.7   c0,0.6,0.4,1.2,0.9,1.3l1.6,0.6c0.5,0.2,0.9-0.1,0.9-0.7v-7.2h9.1v4.7c0,0.5,0.4,1.1,0.9,1.3l2,0.7c0.5,0.2,0.9-0.2,0.9-0.7v-6l7,0   c0.5,0,1.1-0.4,1.4-0.9l0.5-1c0.2-0.5,0-0.9-0.5-0.9l-8.3,0v-4.1l7,0c0.5,0,1.1-0.4,1.4-0.9l0.5-1c0.2-0.5,0-0.9-0.5-0.9h-5.5h0   h-2.8v-2c0-0.5-0.4-1.1-0.9-1.3l-2-0.7c-0.5-0.2-0.9,0.2-0.9,0.7v3.3h-9.1l0-3c0-1,0.5-1.6,1.5-1.6h19.7c1,0,1.5,0.5,1.5,1.6v1.7   c0,0.5,0.1,16.7,0,18.5c0.1,0.5,0.5,0.9,0.9,1.1l1.6,0.6c0.5,0.2,0.9-0.1,0.9-0.7v-23C513.6,173.9,512.6,172.9,510.5,172.9z    M487.7,183.5h9.1v4.1h-9.1V183.5z" />
    <path fill-rule="evenodd" clip-rule="evenodd" fill="#1C87C9" d="M474.8,161.8c0.4,0,0.8,0.1,1.3,0.4c1,0.5,1.9,1.1,2.7,1.6   c1.2,0.7,2.3,1.6,3.4,2.5c0.4,0.5,0.6,0.9,0.6,1.1c0,1.2-0.6,1.7-1.7,1.7c-0.6,0-1.2-0.2-1.6-0.6c-1.3-0.9-2.3-1.7-3.2-2.2   c-0.8-0.5-1.6-0.9-2.5-1.4c-0.5-0.4-0.7-0.9-0.7-1.3C473,162.4,473.6,161.8,474.8,161.8L474.8,161.8z" />
    <path fill-rule="evenodd" clip-rule="evenodd" fill="#1C87C9" d="M473.2,171.8c0.4,0,0.8,0.1,1.3,0.4c1,0.5,1.9,1.1,2.7,1.6   c1.3,0.7,2.5,1.6,3.6,2.5c0.4,0.5,0.6,0.9,0.6,1.1c0,1.2-0.6,1.8-1.7,1.8c-0.6,0-1.2-0.2-1.6-0.6c-1.3-0.9-2.4-1.7-3.4-2.2   c-0.8-0.5-1.6-0.9-2.6-1.4c-0.4-0.4-0.7-0.9-0.7-1.3C471.4,172.4,472,171.8,473.2,171.8z" />
  </g>
  <path fill="#1C87C9" d="M356.3,158.9l-26.1,2.7c-1,0.1-1.7,0.9-1.7,1.9v0.4v33.5v0.4c0,0.7,0.4,1.4,1.1,1.7l17.8,7.9  c0.2,0.1,0.5,0.2,0.8,0.2c0.4,0,0.7-0.1,1-0.3c0.5-0.3,0.9-0.9,0.9-1.6v-8.5l6.2-0.7c1.5-0.2,2.7-1.5,2.7-3v-32.1  C359.1,159.8,357.8,158.7,356.3,158.9z M355.3,191.7c0,0.6-0.5,1.1-1.1,1.2l-4,0.4v-21.6c0-0.7-0.4-1.4-1.1-1.7l-12.1-5.4l17-1.8  c0.7,0,1.3,0.6,1.3,1.3V191.7z" />
  <g>
    <rect x="328.5" y="295.2" fill="#1C87C9" width="136.1" height="56.7" />
    <text transform="matrix(1 0 0 1 350.2082 320.1207)">
      <tspan x="0" y="0" fill="#FFFFFF" font-family="'MicrosoftJhengHeiRegular'" font-size="12">CMYK</tspan>
      <tspan x="35" y="0" fill="#FFFFFF" font-family="'MicrosoftJhengHeiRegular'" font-size="12" letter-spacing="-1">
      </tspan>
      <tspan x="36" y="0" fill="#FFFFFF" font-family="'MicrosoftJhengHeiRegular'" font-size="12">80/37/0/0</tspan>
      <tspan x="0" y="14.4" fill="#FFFFFF" font-family="'MicrosoftJhengHeiRegular'" font-size="12">Web</tspan>
      <tspan x="27.5" y="14.4" fill="#FFFFFF" font-family="'MicrosoftJhengHeiRegular'" font-size="12" letter-spacing="5">
      </tspan>
      <tspan x="36" y="14.4" fill="#FFFFFF" font-family="'MicrosoftJhengHeiRegular'" font-size="12">#0088D2</tspan>
    </text>
  </g>
  <g>
    <path fill="#1C87C9" d="M526.1,186.1c0.5,1.8,1.1,4.7,1.7,8.7c0.1,0.9,0.2,1.5,0.2,1.7c0,1-0.6,1.5-1.7,1.5c-1.1,0-1.6-0.5-1.7-1.5   c-0.4-3.6-1-6.7-1.6-9.2l-0.1-0.8c0-0.9,0.5-1.3,1.6-1.3C525.2,185.2,525.8,185.5,526.1,186.1z" />
    <path fill="#1C87C9" d="M538.7,186.7c0,0.4-0.1,0.8-0.2,1.3c-0.4,2.3-1,4.5-1.7,6.5c-0.3,0.5-0.8,0.8-1.4,0.8   c-1.2,0-1.7-0.4-1.7-1.2c0-0.4,0.1-0.7,0.4-1.1c0.6-2,1-4.2,1.3-6.5c0.2-0.8,0.7-1.2,1.6-1.2C538.1,185.3,538.7,185.8,538.7,186.7z   " />
    <path fill="#1C87C9" d="M552.1,181.7h-3v-3h1.5c1.8,0,2.8-0.9,2.8-2.9v-4.6c0-1.7-1-2.6-2.8-2.6h-1.5v-3.4h3c1,0,1.5-0.5,1.5-1.7   c0-1-0.5-1.5-1.5-1.5h-9.6c-2,0-3.1,1-3.1,3.1v16.6c0,2.2,1,3.2,3.1,3.2h9.6c1,0,1.5-0.5,1.5-1.7   C553.6,182.3,553.1,181.7,552.1,181.7z M542.6,166.8c0-1,0.5-1.6,1.5-1.6h1.5v3.4h-3V166.8z M542.6,171.5h6.8c0.6,0.1,1,0.4,1,0.8   v2.9c0,0.5-0.2,0.7-0.6,0.7h-7.2V171.5z M545.6,181.7h-1.5c-1,0-1.5-0.5-1.5-1.7v-1.3h3V181.7z" />
    <path fill="#1C87C9" d="M566.3,201.1h-1.5v-10.6c0-1.9-1.1-2.9-3.2-2.9h-17.8c-2,0-3,1-3,2.9v10.6h-2.1c-1.2,0-1.7,0.5-1.7,1.7   c0,1.3,0.5,1.9,1.7,1.9h27.6c1.1,0,1.7-0.6,1.7-1.9C568,201.6,567.4,201.1,566.3,201.1z M547.3,201.1h-3v-8.9   c0-0.9,0.3-1.3,1.1-1.3h1.9V201.1z M554.2,201.1h-3.4v-10.2h3.4V201.1z M561.2,201.1h-3.6v-10.2h2.3c0.9,0,1.4,0.4,1.4,1.3V201.1z" />
    <path fill="#1C87C9" d="M567.2,180.2h-10c-1.2,0-1.7,0.6-1.7,1.7c0,1.2,0.6,1.7,1.7,1.7h8.4c0.5,0,1.1-0.4,1.3-0.9l0.7-1.6   C567.9,180.6,567.7,180.2,567.2,180.2z" />
    <path fill="#1C87C9" d="M524.1,173.6c0.2,0,0.5,0,0.9-0.1c-0.1,0.2-0.1,0.4-0.1,0.7c0,1.2,0.5,1.7,1.7,1.7h8.7   c1.2,0,1.7-0.5,1.7-1.7c0-1.1-0.6-1.7-1.7-1.7h-8.7c-0.1,0-0.2,0-0.4,0c1.8-2.1,3.4-4.5,4.8-7c0.1-0.3,0.3-0.4,0.5-0.4   c0.1,0,0.3,0.1,0.5,0.3l3.7,4.4c0.4,0.3,0.8,0.4,1.2,0.4c1.1,0,1.6-0.6,1.7-1.7c0-0.5-0.3-1-0.8-1.5l-4.9-5.1c-0.6-0.6-1.1-1-1.6-1   c-0.8,0-1.5,0.5-2,1.6c-1.4,2.4-3.5,4.9-6.4,7.7c-0.5,0.5-0.7,1-0.7,1.5C522.2,172.9,522.8,173.5,524.1,173.6z" />
    <path fill="#1C87C9" d="M536.8,196.9c-0.2,0-0.5,0.1-0.8,0.2c-0.9,0.5-1.9,0.9-3,1.3v-14.8l3.1,0c0.5,0,1.1-0.4,1.3-0.9l0.7-1.6   c0.2-0.5,0-0.9-0.5-0.9l-4.7,0v-1.9c0-0.5-0.4-1.1-0.9-1.2l-1.9-0.6c-0.5-0.2-0.9,0.2-0.9,0.7l0,3h-4.8c-0.5,0-1.1,0.4-1.3,0.9   l-0.7,1.6c-0.2,0.5,0,0.9,0.5,0.9h6.4v16c-1.4,0.4-3.2,0.9-5.7,1.3c-1,0.2-1.5,0.9-1.5,2.1c0,1.2,0.5,1.8,1.5,1.9   c2.9-0.6,5.3-1.2,7.3-1.9c2.6-0.9,4.8-1.7,6.4-2.7c0.7-0.2,1.1-0.9,1.2-1.9C538.4,197.4,537.8,197,536.8,196.9z" />
    <path fill="#1C87C9" d="M567.4,165.8H561c0,0,0,0,0-0.1h0c0-0.6,0-1.1,0-1.7h0V164c0-0.8-0.6-1.8-1.3-2.1l-0.9-0.4   c-0.7-0.3-1.3,0.1-1.3,1l-0.2,3.2c-0.1,1-0.2,1.8-0.4,2.6c-0.4,1.6-0.9,3.1-1.7,4.5c-0.1,0.4-0.1,0.7-0.1,0.9   c0,1.2,0.6,1.7,1.9,1.7c0.5,0,1.1-0.2,1.7-0.7c0.8-1.6,1.4-3.4,1.8-5.3c0,0,0-0.1,0-0.2h5.3c0.5,0,1.1-0.4,1.3-0.9l0.7-1.6   C568.1,166.2,567.9,165.8,567.4,165.8z" />
  </g>
  <g>
    <g>
      <path fill-rule="evenodd" clip-rule="evenodd" fill="#FFFFFF" d="M68.6,38.4c0.1,0.4,0.2,0.7,0.2,0.9c0,0.2-0.1,0.4-0.2,0.5    C68.5,40,68.3,40,68,40.1c-0.3,0-0.7,0.1-1.2,0.1c-0.5,0-0.9,0-1.3,0c-0.3,0-0.5-0.1-0.7-0.1c-0.2-0.1-0.3-0.1-0.4-0.2    c-0.1-0.1-0.1-0.2-0.2-0.4l-9.6-27.7h0l-5.6,16.3c0.8,0,9.4,0,9.4,0c0.5,0,0.7,0.4,0.5,0.9l-0.7,1.8c-0.2,0.5-0.7,0.9-1.2,0.9    l-9.1,0l-2.7,7.9c-0.1,0.2-0.1,0.3-0.2,0.4c-0.1,0.1-0.2,0.2-0.4,0.3c-0.2,0.1-0.4,0.1-0.7,0.2c-0.3,0-0.7,0.1-1.1,0.1    c-0.5,0-0.9,0-1.2-0.1c-0.3,0-0.5-0.1-0.7-0.2c-0.1-0.1-0.2-0.3-0.2-0.5c0-0.2,0.1-0.5,0.2-0.9L51.9,8c0.1-0.2,0.2-0.3,0.3-0.5    c0.1-0.1,0.3-0.2,0.5-0.3c0.2-0.1,0.5-0.1,0.8-0.1c0.3,0,0.7,0,1.2,0c0.5,0,1,0,1.3,0c0.4,0,0.6,0.1,0.9,0.1    c0.2,0.1,0.4,0.2,0.5,0.3c0.1,0.1,0.2,0.3,0.3,0.5L68.6,38.4z" />
      <path fill-rule="evenodd" clip-rule="evenodd" fill="#FFFFFF" d="M158.3,17.1c0-1.3-0.3-2.4-0.7-3.3c-0.5-0.9-1.1-1.6-1.9-2    c-0.7-0.4-1.5-0.7-2.3-0.8c-0.8-0.1-1.6-0.2-2.3-0.2h-4v13.1h3.9c1.3,0,2.4-0.2,3.3-0.5c0.9-0.3,1.6-0.8,2.2-1.4    c0.6-0.6,1-1.3,1.3-2.1C158.2,19,158.3,18.1,158.3,17.1 M147.2,39.1c0,0.8-0.6,1.2-1.2,0.9l-1.9-0.8c-0.7-0.3-1.2-1.2-1.2-2    l0-28.1c0-0.7,0.2-1.2,0.5-1.4c0.4-0.3,0.7-0.4,1.2-0.4h7c0.7,0,1.4,0,2,0.1c0.6,0.1,1.4,0.2,2.3,0.4c0.9,0.2,1.8,0.6,2.7,1.1    c0.9,0.5,1.7,1.2,2.3,2c0.6,0.8,1.1,1.7,1.5,2.7c0.3,1,0.5,2.1,0.5,3.4c0,1.6-0.3,3.1-0.8,4.4c-0.5,1.3-1.3,2.4-2.3,3.4    c-1,0.9-2.2,1.6-3.7,2.1c-1.5,0.5-3.2,0.8-5.2,0.8h-3.7L147.2,39.1z" />
      <path fill="#FFFFFF" d="M220.9,30.8c0,1.5-0.3,2.8-0.8,4c-0.6,1.2-1.3,2.1-2.3,3c-1,0.8-2.1,1.4-3.4,1.8c-1.3,0.4-2.7,0.6-4.3,0.6    c-1.1,0-2-0.1-3-0.3c-0.9-0.2-1.7-0.4-2.4-0.7c-0.7-0.3-1.3-0.5-1.8-0.8c-0.5-0.3-0.8-0.5-1-0.7c-0.2-0.2-0.3-0.4-0.4-0.7    c-0.1-0.3-0.1-0.7-0.1-1.2c0-0.4,0-0.7,0-0.9c0-0.2,0.1-0.4,0.1-0.6c0.1-0.2,0.1-0.3,0.2-0.3c0.1-0.1,0.2-0.1,0.3-0.1    c0.2,0,0.6,0.1,1,0.4c0.4,0.3,0.9,0.6,1.6,0.9c0.7,0.3,1.4,0.6,2.4,0.9c0.9,0.3,2,0.4,3.2,0.4c0.9,0,1.8-0.1,2.5-0.4    c0.8-0.2,1.4-0.6,2-1c0.6-0.4,1-1,1.3-1.7c0.3-0.7,0.4-1.4,0.4-2.2c0-0.9-0.2-1.7-0.6-2.3c-0.4-0.6-0.9-1.2-1.6-1.7    c-0.7-0.5-1.4-0.9-2.3-1.3c-0.9-0.4-1.7-0.8-2.6-1.2c-0.9-0.4-1.8-0.9-2.6-1.4c-0.9-0.5-1.6-1.1-2.3-1.8c-0.7-0.7-1.2-1.5-1.6-2.4    c-0.4-0.9-0.6-2-0.6-3.3c0-1.3,0.2-2.5,0.7-3.5c0.5-1,1.2-1.9,2-2.6c0.9-0.7,1.9-1.2,3.1-1.6c1.2-0.4,2.5-0.6,3.8-0.6    c0.7,0,1.4,0.1,2.1,0.2c0.7,0.1,1.4,0.3,2,0.5c0.6,0.2,1.2,0.4,1.7,0.7c0.5,0.3,0.8,0.5,1,0.6c0.2,0.2,0.3,0.3,0.3,0.4    c0,0.1,0.1,0.2,0.1,0.3c0,0.1,0.1,0.3,0.1,0.5c0,0.2,0,0.4,0,0.8c0,0.3,0,0.6,0,0.8c0,0.2-0.1,0.4-0.1,0.6c0,0.2-0.1,0.3-0.2,0.3    c-0.1,0.1-0.2,0.1-0.3,0.1c-0.2,0-0.5-0.1-0.8-0.3c-0.4-0.2-0.9-0.5-1.4-0.8c-0.5-0.3-1.2-0.5-2-0.8c-0.8-0.2-1.6-0.4-2.6-0.4    c-0.9,0-1.6,0.1-2.3,0.4c-0.7,0.2-1.2,0.6-1.6,0.9c-0.4,0.4-0.7,0.9-1,1.4c-0.2,0.5-0.3,1.1-0.3,1.7c0,0.9,0.2,1.6,0.6,2.3    c0.4,0.6,1,1.2,1.6,1.7c0.7,0.5,1.5,0.9,2.3,1.3c0.9,0.4,1.8,0.8,2.7,1.2c0.9,0.4,1.8,0.9,2.6,1.4c0.9,0.5,1.6,1.1,2.3,1.8    c0.7,0.7,1.2,1.5,1.6,2.4C220.7,28.4,220.9,29.5,220.9,30.8" />
      <path fill="#FFFFFF" d="M201.5,30.8c0,1.5-0.3,2.8-0.8,4c-0.6,1.2-1.3,2.1-2.3,3c-1,0.8-2.1,1.4-3.4,1.8c-1.3,0.4-2.7,0.6-4.3,0.6    c-1.1,0-2.1-0.1-3-0.3c-0.9-0.2-1.7-0.4-2.4-0.7c-0.7-0.3-1.3-0.5-1.8-0.8c-0.5-0.3-0.8-0.5-1-0.7c-0.2-0.2-0.3-0.4-0.4-0.7    c-0.1-0.3-0.1-0.7-0.1-1.2c0-0.4,0-0.7,0.1-0.9c0-0.2,0.1-0.4,0.1-0.6c0.1-0.2,0.2-0.3,0.3-0.3c0.1-0.1,0.2-0.1,0.3-0.1    c0.2,0,0.6,0.1,1,0.4c0.4,0.3,0.9,0.6,1.6,0.9c0.7,0.3,1.4,0.6,2.4,0.9c0.9,0.3,2,0.4,3.2,0.4c0.9,0,1.8-0.1,2.5-0.4    c0.8-0.2,1.4-0.6,2-1c0.6-0.4,1-1,1.3-1.7c0.3-0.7,0.4-1.4,0.4-2.2c0-0.9-0.2-1.7-0.6-2.3c-0.4-0.6-0.9-1.2-1.6-1.7    c-0.7-0.5-1.4-0.9-2.3-1.3c-0.9-0.4-1.7-0.8-2.6-1.2c-0.9-0.4-1.8-0.9-2.6-1.4c-0.9-0.5-1.6-1.1-2.3-1.8c-0.7-0.7-1.2-1.5-1.6-2.4    c-0.4-0.9-0.6-2-0.6-3.3c0-1.3,0.2-2.5,0.7-3.5c0.5-1,1.2-1.9,2-2.6c0.9-0.7,1.9-1.2,3.1-1.6c1.2-0.4,2.5-0.6,3.8-0.6    c0.7,0,1.4,0.1,2.1,0.2c0.7,0.1,1.4,0.3,2,0.5c0.6,0.2,1.2,0.4,1.7,0.7c0.5,0.3,0.8,0.5,1,0.6c0.2,0.2,0.3,0.3,0.3,0.4    c0.1,0.1,0.1,0.2,0.1,0.3c0,0.1,0.1,0.3,0.1,0.5c0,0.2,0,0.4,0,0.8c0,0.3,0,0.6,0,0.8c0,0.2-0.1,0.4-0.1,0.6    c0,0.2-0.1,0.3-0.2,0.3c-0.1,0.1-0.2,0.1-0.3,0.1c-0.2,0-0.5-0.1-0.8-0.3c-0.4-0.2-0.9-0.5-1.4-0.8c-0.6-0.3-1.2-0.5-2-0.8    c-0.8-0.2-1.6-0.4-2.6-0.4c-0.9,0-1.6,0.1-2.3,0.4c-0.7,0.2-1.2,0.6-1.6,0.9c-0.4,0.4-0.7,0.9-1,1.4c-0.2,0.5-0.3,1.1-0.3,1.7    c0,0.9,0.2,1.6,0.6,2.3c0.4,0.6,1,1.2,1.6,1.7c0.7,0.5,1.5,0.9,2.3,1.3c0.9,0.4,1.7,0.8,2.7,1.2c0.9,0.4,1.8,0.9,2.6,1.4    c0.9,0.5,1.6,1.1,2.3,1.8c0.7,0.7,1.2,1.5,1.6,2.4C201.3,28.4,201.5,29.5,201.5,30.8z" />
      <path fill="#FFFFFF" d="M139.3,27.9c0,1.9-0.3,3.6-0.8,5.2c-0.6,1.5-1.4,2.8-2.4,3.8c-1,1-2.3,1.8-3.8,2.4    c-1.5,0.5-3.2,0.8-5.1,0.8c-1.8,0-3.3-0.3-4.8-0.8c-1.4-0.5-2.7-1.3-3.7-2.2c-1-1-1.8-2.2-2.4-3.7c-0.6-1.5-0.8-3.2-0.8-5.1V8.6    c0-0.1,0-0.3,0.1-0.3c0.1-0.1,0.2-0.2,0.3-0.2c0.2-0.1,0.4-0.1,0.6-0.2c0.3,0,0.6-0.1,1-0.1c0.4,0,0.7,0,1,0.1    c0.3,0,0.5,0.1,0.7,0.2c0.2,0.1,0.3,0.1,0.3,0.2c0.1,0.1,0.1,0.2,0.1,0.3v19.2c0,1.5,0.2,2.8,0.5,3.8c0.4,1.1,0.9,2,1.6,2.7    c0.7,0.7,1.5,1.3,2.4,1.6c0.9,0.4,2,0.6,3.2,0.6c1.2,0,2.3-0.2,3.3-0.5c1-0.4,1.8-0.9,2.4-1.6c0.7-0.7,1.2-1.6,1.5-2.7    c0.4-1.1,0.5-2.3,0.5-3.7V8.6c0-0.1,0-0.3,0.1-0.3c0.1-0.1,0.2-0.2,0.3-0.2c0.2-0.1,0.4-0.1,0.6-0.2c0.3,0,0.6-0.1,1-0.1    c0.4,0,0.7,0,1,0.1c0.3,0,0.5,0.1,0.6,0.2c0.2,0.1,0.3,0.1,0.4,0.2c0.1,0.1,0.1,0.2,0.1,0.3V27.9z" />
      <path fill="#FFFFFF" d="M113.6,35.2c0,0.3,0,0.5,0,0.7c0,0.2,0,0.4-0.1,0.5c0,0.1-0.1,0.3-0.2,0.4c-0.1,0.1-0.2,0.3-0.3,0.4    c-0.2,0.2-0.5,0.4-1,0.8c-0.5,0.3-1.2,0.7-2,1c-0.8,0.3-1.7,0.6-2.7,0.8c-1,0.2-2.1,0.3-3.3,0.3c-2.1,0-3.9-0.3-5.6-1    c-1.7-0.7-3.1-1.7-4.2-3c-1.2-1.3-2.1-3-2.7-5c-0.6-2-0.9-4.2-0.9-6.8c0-2.6,0.3-5,1-7c0.7-2.1,1.6-3.8,2.9-5.2    c1.2-1.4,2.7-2.5,4.4-3.3c1.7-0.8,3.6-1.1,5.7-1.1c0.9,0,1.8,0.1,2.7,0.3c0.9,0.2,1.7,0.4,2.4,0.6c0.7,0.3,1.4,0.6,2,0.9    c0.6,0.3,1,0.6,1.2,0.8c0.2,0.2,0.4,0.4,0.4,0.5c0.1,0.1,0.1,0.2,0.2,0.4c0,0.2,0.1,0.3,0.1,0.6c0,0.2,0,0.5,0,0.8    c0,0.3,0,0.6,0,0.8c0,0.2-0.1,0.4-0.2,0.6c-0.1,0.2-0.1,0.3-0.2,0.3c-0.1,0.1-0.2,0.1-0.3,0.1c-0.2,0-0.6-0.2-1-0.5    c-0.4-0.3-0.9-0.7-1.6-1.1c-0.7-0.4-1.4-0.7-2.4-1.1c-0.9-0.3-2.1-0.5-3.3-0.5c-1.4,0-2.7,0.3-3.9,0.8c-1.2,0.6-2.2,1.4-3,2.5    c-0.8,1.1-1.5,2.4-1.9,4C95.2,20.2,95,22,95,24c0,2,0.2,3.8,0.7,5.3c0.4,1.5,1.1,2.8,1.9,3.9c0.8,1,1.8,1.8,3,2.4    c1.2,0.5,2.5,0.8,4,0.8c1.3,0,2.4-0.2,3.3-0.5c0.9-0.3,1.7-0.7,2.4-1c0.7-0.4,1.2-0.7,1.6-1c0.4-0.3,0.8-0.5,1-0.5    c0.1,0,0.2,0,0.3,0.1c0.1,0.1,0.1,0.1,0.2,0.3c0,0.1,0.1,0.3,0.1,0.6C113.6,34.6,113.6,34.9,113.6,35.2z" />
      <path fill="#FFFFFF" d="M90.5,35.2c0,0.3,0,0.5,0,0.7c0,0.2,0,0.4-0.1,0.5c0,0.1-0.1,0.3-0.2,0.4c-0.1,0.1-0.2,0.3-0.3,0.4    c-0.2,0.2-0.5,0.4-1,0.8c-0.5,0.3-1.2,0.7-2,1c-0.8,0.3-1.7,0.6-2.7,0.8c-1,0.2-2.1,0.3-3.3,0.3c-2.1,0-3.9-0.3-5.6-1    c-1.7-0.7-3.1-1.7-4.2-3c-1.2-1.3-2.1-3-2.7-5c-0.6-2-0.9-4.2-0.9-6.8c0-2.6,0.3-5,1-7c0.7-2.1,1.6-3.8,2.9-5.2    c1.2-1.4,2.7-2.5,4.4-3.3c1.7-0.8,3.6-1.1,5.7-1.1c0.9,0,1.8,0.1,2.7,0.3C85,8,85.8,8.2,86.5,8.5c0.7,0.3,1.4,0.6,2,0.9    c0.6,0.3,1,0.6,1.2,0.8c0.2,0.2,0.4,0.4,0.4,0.5c0.1,0.1,0.1,0.2,0.2,0.4c0,0.2,0.1,0.3,0.1,0.6c0,0.2,0,0.5,0,0.8    c0,0.3,0,0.6,0,0.8c0,0.2-0.1,0.4-0.2,0.6c-0.1,0.2-0.1,0.3-0.2,0.3c-0.1,0.1-0.2,0.1-0.3,0.1c-0.2,0-0.6-0.2-1-0.5    c-0.4-0.3-0.9-0.7-1.6-1.1c-0.7-0.4-1.4-0.7-2.4-1.1c-0.9-0.3-2-0.5-3.3-0.5c-1.4,0-2.7,0.3-3.9,0.8c-1.2,0.6-2.2,1.4-3,2.5    c-0.8,1.1-1.5,2.4-1.9,4c-0.5,1.6-0.7,3.4-0.7,5.4c0,2,0.2,3.8,0.7,5.3c0.4,1.5,1.1,2.8,1.9,3.9c0.8,1,1.8,1.8,3,2.4    c1.2,0.5,2.5,0.8,4,0.8c1.3,0,2.4-0.2,3.3-0.5c0.9-0.3,1.7-0.7,2.4-1c0.7-0.4,1.2-0.7,1.6-1c0.4-0.3,0.8-0.5,1-0.5    c0.1,0,0.2,0,0.3,0.1c0.1,0.1,0.1,0.1,0.2,0.3c0,0.1,0.1,0.3,0.1,0.6C90.5,34.6,90.5,34.9,90.5,35.2z" />
      <path fill-rule="evenodd" clip-rule="evenodd" fill="#FFFFFF" d="M186,38.4c0.1,0.4,0.2,0.7,0.2,0.9c0,0.2-0.1,0.4-0.2,0.5    c-0.1,0.1-0.4,0.2-0.7,0.2c-0.3,0-0.7,0.1-1.2,0.1c-0.5,0-0.9,0-1.3,0c-0.3,0-0.5-0.1-0.7-0.1c-0.2-0.1-0.3-0.1-0.4-0.2    c-0.1-0.1-0.1-0.2-0.2-0.4L172,11.6h0l-5.6,16.3c0.8,0,9.4,0,9.4,0c0.5,0,0.7,0.4,0.5,0.9l-0.7,1.8c-0.2,0.5-0.7,0.9-1.2,0.9    l-9.1,0l-2.7,7.9c0,0.2-0.1,0.3-0.2,0.4c-0.1,0.1-0.2,0.2-0.4,0.3c-0.2,0.1-0.4,0.1-0.7,0.2c-0.3,0-0.7,0.1-1.1,0.1    c-0.5,0-0.9,0-1.2-0.1c-0.3,0-0.5-0.1-0.7-0.2c-0.1-0.1-0.2-0.3-0.2-0.5c0-0.2,0.1-0.5,0.2-0.9l11-30.4c0.1-0.2,0.2-0.3,0.3-0.5    c0.1-0.1,0.3-0.2,0.5-0.3c0.2-0.1,0.5-0.1,0.8-0.1c0.3,0,0.7,0,1.3,0c0.5,0,1,0,1.3,0c0.4,0,0.6,0.1,0.9,0.1    c0.2,0.1,0.4,0.2,0.5,0.3c0.1,0.1,0.2,0.3,0.3,0.5L186,38.4z" />
    </g>
    <path fill="#FFFFFF" d="M27.8,0L1.7,2.8C0.7,2.9,0,3.7,0,4.6V5v33.5v0.4c0,0.7,0.4,1.4,1.1,1.7l17.8,7.9c0.2,0.1,0.5,0.2,0.8,0.2   c0.4,0,0.7-0.1,1-0.3c0.5-0.3,0.9-0.9,0.9-1.6v-8.5l6.2-0.7c1.5-0.2,2.7-1.5,2.7-3V2.5C30.5,1,29.3-0.1,27.8,0z M26.7,32.8   c0,0.6-0.5,1.1-1.1,1.2l-4,0.4V12.9c0-0.7-0.4-1.4-1.1-1.7L8.4,5.8l17-1.8c0.7,0,1.3,0.6,1.3,1.3V32.8z" />
  </g>
  <g>
    <path fill="#1C87C9" d="M356.3,225.5l-26.1,2.7c-1,0.1-1.7,0.9-1.7,1.9v0.4V264v0.4c0,0.7,0.4,1.4,1.1,1.7l17.8,7.9   c0.2,0.1,0.5,0.2,0.8,0.2c0.4,0,0.7-0.1,1-0.3c0.5-0.3,0.9-0.9,0.9-1.6v-8.5l6.2-0.7c1.5-0.2,2.7-1.5,2.7-3V228   C359.1,226.5,357.8,225.4,356.3,225.5z M355.3,258.4c0,0.6-0.5,1.1-1.1,1.2l-4,0.4v-21.6c0-0.7-0.4-1.4-1.1-1.7l-12.1-5.4l17-1.8   c0.7,0,1.3,0.6,1.3,1.3V258.4z" />
    <g>
      <path fill-rule="evenodd" clip-rule="evenodd" fill="#1C87C9" d="M397.2,264c0.1,0.4,0.2,0.7,0.2,0.9c0,0.2-0.1,0.4-0.2,0.5    c-0.1,0.1-0.4,0.2-0.7,0.2c-0.3,0-0.7,0.1-1.2,0.1c-0.5,0-0.9,0-1.3,0c-0.3,0-0.5-0.1-0.7-0.1c-0.2-0.1-0.3-0.1-0.4-0.2    c-0.1-0.1-0.1-0.2-0.2-0.4l-9.6-27.7h0l-5.6,16.3c0.8,0,9.4,0,9.4,0c0.5,0,0.7,0.4,0.5,0.9l-0.7,1.8c-0.2,0.5-0.7,0.9-1.2,0.9    l-9.1,0l-2.7,7.9c-0.1,0.2-0.1,0.3-0.2,0.4c-0.1,0.1-0.2,0.2-0.4,0.3c-0.2,0.1-0.4,0.1-0.7,0.2c-0.3,0-0.7,0.1-1.1,0.1    c-0.5,0-0.9,0-1.2-0.1c-0.3,0-0.5-0.1-0.7-0.2c-0.1-0.1-0.2-0.3-0.2-0.5c0-0.2,0.1-0.5,0.2-0.9l11-30.4c0.1-0.2,0.2-0.3,0.3-0.5    c0.1-0.1,0.3-0.2,0.5-0.3c0.2-0.1,0.5-0.1,0.8-0.1c0.3,0,0.7,0,1.2,0c0.5,0,1,0,1.3,0c0.4,0,0.6,0.1,0.9,0.1    c0.2,0.1,0.4,0.2,0.5,0.3c0.1,0.1,0.2,0.3,0.3,0.5L397.2,264z" />
      <path fill="#1C87C9" d="M467.8,253.5c0,1.9-0.3,3.6-0.8,5.2c-0.6,1.5-1.4,2.8-2.4,3.8c-1,1-2.3,1.8-3.8,2.4    c-1.5,0.5-3.2,0.8-5.1,0.8c-1.8,0-3.3-0.3-4.8-0.8c-1.4-0.5-2.7-1.3-3.7-2.2c-1-1-1.8-2.2-2.4-3.7c-0.6-1.5-0.8-3.2-0.8-5.1v-19.7    c0-0.1,0-0.3,0.1-0.3c0.1-0.1,0.2-0.2,0.3-0.2c0.2-0.1,0.4-0.1,0.6-0.2c0.3,0,0.6-0.1,1-0.1c0.4,0,0.7,0,1,0.1    c0.3,0,0.5,0.1,0.6,0.2c0.2,0.1,0.3,0.1,0.3,0.2c0.1,0.1,0.1,0.2,0.1,0.3v19.2c0,1.5,0.2,2.8,0.5,3.8c0.4,1.1,0.9,2,1.6,2.7    c0.7,0.7,1.5,1.3,2.4,1.6c0.9,0.4,2,0.6,3.2,0.6c1.2,0,2.3-0.2,3.3-0.5c1-0.4,1.8-0.9,2.4-1.6c0.7-0.7,1.2-1.6,1.5-2.7    c0.4-1.1,0.5-2.3,0.5-3.7v-19.4c0-0.1,0-0.3,0.1-0.3c0.1-0.1,0.2-0.2,0.3-0.2c0.2-0.1,0.4-0.1,0.6-0.2c0.3,0,0.6-0.1,1-0.1    c0.4,0,0.7,0,1,0.1c0.3,0,0.5,0.1,0.6,0.2c0.2,0.1,0.3,0.1,0.4,0.2c0.1,0.1,0.1,0.2,0.1,0.3V253.5z" />
      <path fill="#1C87C9" d="M442.1,260.8c0,0.3,0,0.5,0,0.7c0,0.2,0,0.4-0.1,0.5c0,0.1-0.1,0.3-0.2,0.4c-0.1,0.1-0.2,0.3-0.3,0.4    c-0.2,0.2-0.5,0.4-1,0.8c-0.5,0.3-1.2,0.7-2,1c-0.8,0.3-1.7,0.6-2.7,0.8c-1,0.2-2.1,0.3-3.3,0.3c-2.1,0-3.9-0.3-5.6-1    c-1.7-0.7-3.1-1.7-4.2-3c-1.2-1.3-2.1-3-2.7-5c-0.6-2-0.9-4.2-0.9-6.8c0-2.6,0.3-5,1-7c0.7-2.1,1.6-3.8,2.9-5.2    c1.2-1.4,2.7-2.5,4.4-3.3c1.7-0.8,3.6-1.1,5.7-1.1c0.9,0,1.8,0.1,2.7,0.2c0.9,0.2,1.7,0.4,2.4,0.6c0.7,0.3,1.4,0.6,2,0.9    c0.6,0.3,1,0.6,1.2,0.8c0.2,0.2,0.4,0.4,0.4,0.5c0.1,0.1,0.1,0.2,0.2,0.4c0,0.2,0.1,0.3,0.1,0.6c0,0.2,0,0.5,0,0.8    c0,0.3,0,0.6,0,0.8c0,0.2-0.1,0.4-0.2,0.6c-0.1,0.2-0.1,0.3-0.2,0.3c-0.1,0.1-0.2,0.1-0.3,0.1c-0.2,0-0.6-0.2-1-0.5    c-0.4-0.3-0.9-0.7-1.6-1.1c-0.7-0.4-1.4-0.7-2.4-1.1c-0.9-0.3-2.1-0.5-3.3-0.5c-1.4,0-2.7,0.3-3.9,0.8c-1.2,0.6-2.2,1.4-3,2.5    c-0.8,1.1-1.5,2.4-1.9,4c-0.5,1.6-0.7,3.4-0.7,5.4c0,2,0.2,3.8,0.7,5.3c0.4,1.6,1.1,2.8,1.9,3.9c0.8,1,1.8,1.8,3,2.4    c1.2,0.5,2.5,0.8,4,0.8c1.3,0,2.4-0.2,3.3-0.5c0.9-0.3,1.7-0.7,2.4-1c0.7-0.4,1.2-0.7,1.6-1c0.4-0.3,0.8-0.5,1-0.5    c0.1,0,0.2,0,0.3,0.1c0.1,0.1,0.1,0.1,0.2,0.3c0,0.1,0.1,0.3,0.1,0.6C442.1,260.1,442.1,260.4,442.1,260.8z" />
      <path fill="#1C87C9" d="M419,260.8c0,0.3,0,0.5,0,0.7c0,0.2,0,0.4-0.1,0.5c0,0.1-0.1,0.3-0.2,0.4c-0.1,0.1-0.2,0.3-0.3,0.4    c-0.2,0.2-0.5,0.4-1,0.8c-0.5,0.3-1.2,0.7-2,1c-0.8,0.3-1.7,0.6-2.7,0.8c-1,0.2-2.1,0.3-3.3,0.3c-2.1,0-3.9-0.3-5.6-1    c-1.7-0.7-3.1-1.7-4.2-3c-1.2-1.3-2.1-3-2.7-5c-0.6-2-0.9-4.2-0.9-6.8c0-2.6,0.3-5,1-7c0.7-2.1,1.6-3.8,2.9-5.2    c1.2-1.4,2.7-2.5,4.4-3.3c1.7-0.8,3.6-1.1,5.7-1.1c0.9,0,1.8,0.1,2.7,0.2c0.9,0.2,1.7,0.4,2.4,0.6c0.7,0.3,1.4,0.6,2,0.9    c0.6,0.3,1,0.6,1.2,0.8c0.2,0.2,0.4,0.4,0.4,0.5c0.1,0.1,0.1,0.2,0.2,0.4c0,0.2,0.1,0.3,0.1,0.6c0,0.2,0,0.5,0,0.8    c0,0.3,0,0.6,0,0.8c0,0.2-0.1,0.4-0.2,0.6c-0.1,0.2-0.1,0.3-0.2,0.3c-0.1,0.1-0.2,0.1-0.3,0.1c-0.2,0-0.6-0.2-1-0.5    c-0.4-0.3-0.9-0.7-1.6-1.1c-0.7-0.4-1.4-0.7-2.4-1.1c-0.9-0.3-2-0.5-3.3-0.5c-1.4,0-2.7,0.3-3.9,0.8c-1.2,0.6-2.2,1.4-3,2.5    c-0.8,1.1-1.5,2.4-1.9,4c-0.5,1.6-0.7,3.4-0.7,5.4c0,2,0.2,3.8,0.7,5.3c0.4,1.6,1.1,2.8,1.9,3.9c0.8,1,1.8,1.8,3,2.4    c1.2,0.5,2.5,0.8,4,0.8c1.3,0,2.4-0.2,3.3-0.5c0.9-0.3,1.7-0.7,2.4-1c0.7-0.4,1.2-0.7,1.6-1c0.4-0.3,0.8-0.5,1-0.5    c0.1,0,0.2,0,0.3,0.1c0.1,0.1,0.1,0.1,0.2,0.3c0,0.1,0.1,0.3,0.1,0.6C419,260.1,419,260.4,419,260.8z" />
      <path fill-rule="evenodd" clip-rule="evenodd" fill="#1C87C9" d="M578.2,264c0.1,0.4,0.2,0.7,0.2,0.9c0,0.2-0.1,0.4-0.2,0.5    c-0.1,0.1-0.4,0.2-0.7,0.2c-0.3,0-0.7,0.1-1.2,0.1c-0.5,0-0.9,0-1.3,0c-0.3,0-0.5-0.1-0.7-0.1c-0.2-0.1-0.3-0.1-0.4-0.2    c-0.1-0.1-0.1-0.2-0.2-0.4l-9.6-27.7h0l-5.6,16.3c0.8,0,9.4,0,9.4,0c0.5,0,0.7,0.4,0.5,0.9l-0.7,1.8c-0.2,0.5-0.7,0.9-1.2,0.9    l-9.1,0l-2.7,7.9c0,0.2-0.1,0.3-0.2,0.4c-0.1,0.1-0.2,0.2-0.4,0.3c-0.2,0.1-0.4,0.1-0.7,0.2c-0.3,0-0.7,0.1-1.1,0.1    c-0.5,0-0.9,0-1.2-0.1c-0.3,0-0.5-0.1-0.7-0.2c-0.1-0.1-0.2-0.3-0.2-0.5c0-0.2,0.1-0.5,0.2-0.9l11-30.4c0.1-0.2,0.2-0.3,0.3-0.5    c0.1-0.1,0.3-0.2,0.5-0.3c0.2-0.1,0.5-0.1,0.8-0.1c0.3,0,0.7,0,1.3,0c0.5,0,1,0,1.3,0c0.4,0,0.6,0.1,0.9,0.1    c0.2,0.1,0.4,0.2,0.5,0.3c0.1,0.1,0.2,0.3,0.3,0.5L578.2,264z" />
      <path fill-rule="evenodd" clip-rule="evenodd" fill="#1C87C9" d="M547.5,235.6c0-0.8-0.6-1.7-1.2-2l-1.9-0.8    c-0.7-0.3-1.2,0.1-1.2,0.9l0,29c0,0.8,0.6,1.7,1.2,2l1.9,0.8c0.7,0.3,1.2-0.1,1.2-0.9L547.5,235.6z" />
      <path fill-rule="evenodd" clip-rule="evenodd" fill="#1C87C9" d="M539,239.4c-0.6-1.5-1.4-2.7-2.4-3.7c-1-1-2.3-1.7-3.7-2.2    c-1.4-0.5-3-0.8-4.8-0.8c-0.1,0-9.7,0-9.7,0c-0.4,0-0.8,0.1-1.2,0.4c-0.4,0.3-0.5,0.8-0.5,1.4v29.3c0,0.7,0.2,1.2,0.5,1.4    c0.4,0.3,0.7,0.4,1.2,0.4h9.5c1.8,0,3.4-0.3,4.9-0.8c1.5-0.5,2.8-1.3,3.8-2.4c1-1,1.9-2.3,2.4-3.8c0.6-1.5,0.8-3.2,0.8-5.2v-8.9    C539.8,242.6,539.5,240.8,539,239.4z M535.6,253.5c0,1.4-0.2,2.7-0.5,3.7c-0.4,1.1-0.9,2-1.5,2.7c-0.7,0.7-1.5,1.3-2.4,1.6    c-1,0.4-2,0.5-3.3,0.5c0,0,0,0,0,0v0H521v-25.8h6.8v0c1.2,0,2.3,0.2,3.2,0.6c1,0.4,1.8,0.9,2.5,1.6c0.7,0.7,1.2,1.6,1.6,2.7    c0.4,1.1,0.5,2.4,0.5,3.9V253.5z" />
      <path fill-rule="evenodd" clip-rule="evenodd" fill="#1C87C9" d="M490.9,238.9c-0.3-1-0.8-1.9-1.5-2.7c-0.6-0.8-1.4-1.4-2.3-2    c-0.9-0.5-1.8-0.9-2.7-1.1c-0.9-0.2-1.6-0.3-2.3-0.4c-0.6-0.1-1.3-0.1-2-0.1h-7c-0.4,0-0.8,0.1-1.2,0.4c-0.4,0.3-0.5,0.8-0.5,1.4    l0,28.2c0,0.8,0.6,1.6,1.2,1.9l1.9,0.8c0.7,0.3,1.2-0.1,1.2-0.9l0-11.7h3.7c2,0,3.8-0.3,5.2-0.8c1.5-0.5,2.7-1.2,3.7-2.1    c1-0.9,1.8-2.1,2.3-3.4c0.5-1.3,0.8-2.8,0.8-4.4C491.4,241,491.3,239.9,490.9,238.9z M486.4,245.3c-0.3,0.8-0.7,1.6-1.3,2.1    c-0.6,0.6-1.3,1.1-2.2,1.4c-0.9,0.3-2,0.5-3.3,0.5h-3.9v-13.1h4c0.7,0,1.5,0.1,2.3,0.2c0.8,0.1,1.5,0.4,2.3,0.8    c0.7,0.4,1.4,1.1,1.9,2c0.5,0.9,0.7,2,0.7,3.3C486.9,243.6,486.7,244.5,486.4,245.3z" />
      <path fill-rule="evenodd" clip-rule="evenodd" fill="#1C87C9" d="M513.3,250.3l0.7-1.8c0.2-0.5,0-0.9-0.5-0.9c0,0-11.9,0-15.2,0    v-11.6l13.8,0c0.5,0,1-0.4,1.2-0.9l0.7-1.8c0.2-0.5,0-0.9-0.5-0.9h-17.8c-0.4,0-0.8,0.1-1.2,0.4c-0.4,0.3-0.5,0.8-0.5,1.4v29.2    c0,0.7,0.2,1.2,0.5,1.4c0.4,0.3,0.7,0.4,1.2,0.4h16.4c0.5,0,1-0.4,1.2-0.9l0.7-1.8c0.2-0.5,0-0.9-0.5-0.9c0,0-11.9,0-15.2,0v-11    l13.8,0C512.6,251.2,513.1,250.8,513.3,250.3z" />
    </g>
  </g>
</svg>